<svg width="107" height="107" viewBox="0 0 107 107" fill="none" xmlns="http://www.w3.org/2000/svg">
<path d="M31.585 43.52H45.43V44.57H31.585V43.52ZM32.14 35.315H44.875V36.365H32.14V35.315ZM34.105 40.67H42.925V41.66H34.105V40.67ZM42.49 37.835H43.6V46.82C43.6 47.51 43.45 47.855 42.94 48.035C42.46 48.215 41.62 48.23 40.315 48.23C40.255 47.93 40.075 47.435 39.91 47.15C40.9 47.18 41.86 47.165 42.13 47.15C42.4 47.15 42.49 47.075 42.49 46.82V37.835ZM33.37 37.835H42.955V38.87H34.48V48.23H33.37V37.835ZM37.87 35.645H38.995V43.91H37.87V35.645ZM61.42 42.38C62.71 42.05 64.63 41.48 66.49 40.94L66.625 41.96C64.915 42.5 63.115 43.07 61.72 43.475L61.42 42.38ZM61.615 37.43H66.475V38.48H61.615V37.43ZM63.7 34.415H64.795V46.91C64.795 47.525 64.645 47.84 64.255 48.005C63.865 48.185 63.265 48.215 62.26 48.2C62.23 47.93 62.065 47.48 61.93 47.18C62.605 47.195 63.235 47.195 63.415 47.195C63.625 47.195 63.7 47.12 63.7 46.91V34.415ZM67 37.865H75.115V48.065H73.99V38.93H68.065V48.155H67V37.865ZM67.645 41.87H74.32V42.935H67.645V41.87ZM67.675 46.025H74.35V47.105H67.675V46.025ZM70.45 34.43H71.515V46.685H70.45V34.43ZM31.66 65.535H45.385V66.765H31.66V65.535ZM67.675 59.445L68.845 59.655C68.245 62.25 67.255 64.695 66.04 66.285C65.815 66.105 65.275 65.805 64.96 65.655C66.235 64.185 67.15 61.845 67.675 59.445ZM70.15 63.12H70.72V65.13C70.72 66.465 71.455 70.44 75.535 72.195C75.325 72.465 74.98 72.93 74.8 73.2C71.65 71.76 70.375 68.655 70.135 67.245C69.88 68.67 68.515 71.685 64.885 73.2C64.75 72.96 64.405 72.495 64.195 72.285C68.77 70.485 69.55 66.555 69.55 65.13V63.12H70.15ZM61.555 70.11C62.425 69.3 63.79 67.92 65.065 66.585L65.68 67.56C64.57 68.76 63.31 70.065 62.29 71.04L61.555 70.11ZM62.035 61.215L62.83 60.405C63.805 61.035 65.02 61.98 65.605 62.625L64.765 63.54C64.195 62.88 63.01 61.89 62.035 61.215ZM67.705 62.115H74.455V63.225H67.195L67.705 62.115ZM74.065 62.115H74.245L74.455 62.04L75.28 62.505C74.89 63.945 74.185 65.505 73.63 66.51C73.39 66.375 72.955 66.15 72.67 66.03C73.165 65.13 73.81 63.54 74.065 62.385V62.115Z" fill="black"/>
<path d="M87.6696 55.8895C87.7314 55.3747 87.8844 54.9192 88.1287 54.5229C88.3765 54.127 88.7003 53.8279 89.1002 53.6256C89.5035 53.4236 89.9697 53.3544 90.4985 53.4179C90.9639 53.4737 91.3302 53.6107 91.5973 53.8288C91.8679 54.0472 92.0677 54.3198 92.1966 54.6464C92.3255 54.9731 92.4083 55.3264 92.4449 55.7063C92.4847 56.0902 92.5066 56.4737 92.5107 56.8569C92.5149 57.3582 92.5144 57.7641 92.5093 58.0746C92.5073 58.3891 92.5384 58.6218 92.6026 58.7725C92.6663 58.9268 92.7987 59.016 92.9997 59.0402L93.042 59.0452C93.5638 59.1079 93.9864 59.0138 94.3098 58.7629C94.6328 58.5155 94.8288 58.1045 94.8978 57.5298C94.9693 56.9339 94.8949 56.4511 94.6746 56.0813C94.4544 55.7115 94.2044 55.44 93.9247 55.267L94.49 54.1331C94.9583 54.4039 95.3087 54.7321 95.5414 55.1177C95.7772 55.5072 95.9246 55.9184 95.9835 56.3511C96.0455 56.7877 96.052 57.2105 96.0029 57.6195C95.9716 57.8804 95.9039 58.1763 95.7998 58.5072C95.6988 58.842 95.534 59.1566 95.3055 59.4511C95.0766 59.7491 94.7573 59.9808 94.3476 60.1462C93.9379 60.3116 93.4104 60.3556 92.7652 60.2781L87.413 59.6356L87.5628 58.3875L88.6629 58.5195L88.6705 58.4561C88.5044 58.3503 88.3327 58.1866 88.1554 57.965C87.9781 57.7435 87.8387 57.4603 87.737 57.1154C87.6353 56.7706 87.6129 56.362 87.6696 55.8895ZM88.7679 56.2145C88.7087 56.7081 88.7557 57.1358 88.909 57.4976C89.0618 57.8628 89.2813 58.1503 89.5673 58.3599C89.8529 58.573 90.1649 58.6999 90.5034 58.7405L91.6457 58.8776C91.5886 58.8171 91.5444 58.6938 91.5131 58.5076C91.4849 58.3254 91.4654 58.1156 91.4545 57.8782C91.4468 57.6448 91.4419 57.4171 91.44 57.1951C91.4411 56.9771 91.4409 56.8 91.4394 56.6639C91.436 56.3345 91.4036 56.023 91.3423 55.7295C91.2841 55.44 91.1719 55.1976 91.0058 55.0024C90.8427 54.8112 90.6026 54.6965 90.2852 54.6584C89.8516 54.6063 89.5044 54.7274 89.2438 55.0216C88.9862 55.3197 88.8276 55.7174 88.7679 56.2145Z" fill="#1F4788"/>
<path d="M82.7617 64.0777C82.9814 63.5116 83.2431 63.0533 83.5468 62.7026C83.8472 62.3507 84.1676 62.0846 84.508 61.9043C84.8438 61.7261 85.175 61.6089 85.5015 61.5528L85.7947 62.7408C85.6145 62.7928 85.4036 62.8652 85.1618 62.958C84.9168 63.0496 84.6735 63.2103 84.4318 63.4403C84.1856 63.6724 83.9732 64.0185 83.7946 64.4786C83.5556 65.0944 83.5073 65.6604 83.6498 66.1766C83.7923 66.6928 84.1814 67.0743 84.817 67.3209L86.3663 67.9223L86.4049 67.8229C86.2992 67.6829 86.1746 67.4936 86.031 67.255C85.8895 67.0211 85.7964 66.7259 85.7519 66.3696C85.7093 66.0179 85.7845 65.5937 85.9772 65.0972C86.2162 64.4814 86.5764 63.9851 87.0579 63.6082C87.5381 63.2346 88.1115 63.0134 88.7782 62.9445C89.4436 62.879 90.1735 63.0004 90.9681 63.3088C91.7494 63.612 92.3764 64.0134 92.8491 64.5131C93.3251 65.014 93.6269 65.5711 93.7545 66.1844C93.8855 66.799 93.8264 67.4274 93.5771 68.0696C93.3844 68.5662 93.1487 68.9281 92.8701 69.1551C92.5935 69.3868 92.3208 69.54 92.0518 69.6146C91.7849 69.6939 91.5685 69.7508 91.4027 69.7855L91.3564 69.9047L92.5681 70.375L92.1287 71.5072L84.2827 68.462C83.6272 68.2076 83.152 67.8518 82.8572 67.3945C82.5577 66.9393 82.409 66.4245 82.411 65.85C82.4084 65.2777 82.5253 64.6869 82.7617 64.0777ZM86.9683 65.6647C86.7858 66.1348 86.7392 66.5738 86.8285 66.9817C86.9178 67.3897 87.1316 67.7564 87.4699 68.082C87.8083 68.4076 88.2589 68.6796 88.8217 68.8981C89.3712 69.1114 89.8883 69.2168 90.373 69.2145C90.8577 69.2121 91.2822 69.095 91.6464 68.8631C92.0107 68.6311 92.2854 68.2768 92.4704 67.8001C92.6631 67.3035 92.6979 66.8409 92.5748 66.4122C92.4504 65.9868 92.2085 65.6091 91.8489 65.2791C91.4882 64.9524 91.0495 64.6889 90.5331 64.4884C90.0034 64.2828 89.5028 64.1838 89.0314 64.1913C88.562 64.2034 88.1478 64.3283 87.7889 64.5661C87.432 64.8085 87.1584 65.1747 86.9683 65.6647Z" fill="#1F4788"/>
<path d="M82.1666 72.0581C82.467 71.6355 82.8192 71.3086 83.2232 71.0773C83.6301 70.8481 84.0575 70.7402 84.5055 70.7536C84.9563 70.769 85.3988 70.9311 85.833 71.2397C86.215 71.5112 86.4712 71.8066 86.6016 72.1259C86.7349 72.4471 86.78 72.782 86.7371 73.1305C86.6941 73.479 86.5979 73.8289 86.4485 74.1802C86.2999 74.5363 86.1357 74.8837 85.9561 75.2222C85.7202 75.6645 85.5258 76.0208 85.3728 76.2911C85.2207 76.5664 85.1368 76.7856 85.1211 76.9487C85.1033 77.1147 85.1769 77.2563 85.3419 77.3736L85.3766 77.3982C85.805 77.7027 86.2212 77.8221 86.6252 77.7563C87.0271 77.6935 87.3958 77.4262 87.7311 76.9544C88.0788 76.4652 88.2443 76.0056 88.2276 75.5755C88.2109 75.1454 88.1211 74.7874 87.9582 74.5017L88.9968 73.7761C89.2786 74.2378 89.4295 74.6936 89.4496 75.1435C89.4704 75.5984 89.4033 76.0299 89.2482 76.4381C89.094 76.8513 88.8975 77.2258 88.6589 77.5615C88.5066 77.7757 88.3057 78.0032 88.0561 78.2441C87.8073 78.4899 87.5122 78.6875 87.1707 78.8369C86.8272 78.9892 86.436 79.04 85.9971 78.9894C85.5581 78.9388 85.0738 78.7253 84.5441 78.3488L80.1503 75.2258L80.8786 74.2011L81.7817 74.843L81.8187 74.7909C81.7234 74.6186 81.6508 74.3927 81.6011 74.1134C81.5513 73.834 81.5642 73.5186 81.6397 73.1671C81.7153 72.8156 81.8909 72.446 82.1666 72.0581ZM82.9759 72.8686C82.6879 73.2739 82.5247 73.672 82.4864 74.063C82.4461 74.4569 82.5014 74.8143 82.6524 75.1351C82.8013 75.4588 83.0147 75.7194 83.2926 75.9169L84.2304 76.5835C84.2092 76.5031 84.2293 76.3736 84.2908 76.1951C84.3532 76.0216 84.4363 75.828 84.5403 75.6144C84.645 75.4056 84.7496 75.2033 84.854 75.0074C84.9593 74.8164 85.0437 74.6608 85.1075 74.5406C85.262 74.2496 85.3825 73.9605 85.4689 73.6734C85.5562 73.3913 85.5735 73.1248 85.5209 72.8739C85.4692 72.628 85.3131 72.4124 85.0526 72.2273C84.6965 71.9742 84.3337 71.9146 83.9642 72.0484C83.5954 72.1871 83.266 72.4605 82.9759 72.8686Z" fill="#1F4788"/>
<path d="M78.2212 77.3226L83.9006 83.2121L82.9957 84.0848L77.3163 78.1952L78.2212 77.3226ZM84.387 84.6374C84.5634 84.4674 84.7734 84.3808 85.0171 84.3777C85.2582 84.377 85.4601 84.461 85.6228 84.6298C85.7855 84.7985 85.8622 85.0033 85.8528 85.2442C85.8408 85.4876 85.7466 85.6943 85.5702 85.8644C85.3939 86.0345 85.1851 86.1199 84.944 86.1205C84.7003 86.1236 84.4972 86.0408 84.3345 85.8721C84.1718 85.7034 84.0964 85.4974 84.1084 85.254C84.1178 85.013 84.2107 84.8075 84.387 84.6374Z" fill="#1F4788"/>
<path d="M77.0728 84.9739L74.3549 80.8705L75.403 80.1763L79.921 86.9976L78.9084 87.6683L78.2025 86.6024L78.1137 86.6613C78.1832 87.1135 78.1248 87.5526 77.9383 87.9785C77.7538 88.4074 77.404 88.7925 76.8889 89.1337C76.427 89.4396 75.9601 89.6125 75.4883 89.6524C75.0183 89.6953 74.5607 89.5896 74.1153 89.3351C73.6718 89.0836 73.2579 88.6677 72.8736 88.0874L70.0028 83.7531L71.0509 83.0589L73.8746 87.3222C74.2295 87.8581 74.6452 88.1834 75.1215 88.2981C75.5998 88.4157 76.0817 88.3137 76.5673 87.9922C76.9018 87.7706 77.1528 87.5 77.3202 87.1804C77.4847 86.8628 77.5502 86.5148 77.5169 86.1365C77.4836 85.7582 77.3355 85.3707 77.0728 84.9739Z" fill="#1F4788"/>
<path d="M53.015 87.8583C53.533 87.8783 53.9995 87.9941 54.4142 88.2055C54.8288 88.4206 55.1531 88.7192 55.3871 89.1013C55.621 89.4871 55.7276 89.9461 55.7071 90.4783C55.689 90.9468 55.5821 91.3229 55.3863 91.6067C55.1904 91.8941 54.9349 92.1153 54.6197 92.2701C54.3046 92.425 53.9591 92.536 53.5834 92.6032C53.204 92.6739 52.8234 92.7267 52.4418 92.7617C51.9426 92.8064 51.538 92.8388 51.228 92.8588C50.9144 92.8822 50.685 92.932 50.5399 93.0081C50.3913 93.0841 50.3131 93.2233 50.3052 93.4255L50.3036 93.4681C50.2833 93.9933 50.4113 94.4069 50.6875 94.709C50.9601 95.0109 51.3856 95.1731 51.964 95.1954C52.5637 95.2186 53.039 95.1054 53.3898 94.856C53.7406 94.6065 53.9909 94.3355 54.1408 94.0427L55.3167 94.5146C55.0846 95.0032 54.7858 95.379 54.4202 95.6421C54.051 95.9086 53.6531 96.0886 53.2266 96.1823C52.7964 96.2795 52.3755 96.3201 51.9639 96.3042C51.7013 96.294 51.4009 96.2504 51.0627 96.1734C50.7208 96.0998 50.3939 95.961 50.082 95.7571C49.7664 95.553 49.5097 95.2534 49.3117 94.8584C49.1137 94.4634 49.0273 93.9412 49.0524 93.2919L49.2604 87.9053L50.5165 87.9538L50.4738 89.0609L50.5377 89.0634C50.6297 88.8892 50.7789 88.7049 50.9855 88.5103C51.192 88.3157 51.463 88.1538 51.7985 88.0246C52.134 87.8954 52.5395 87.84 53.015 87.8583ZM52.7798 88.9793C52.283 88.9602 51.8605 89.0416 51.5123 89.2236C51.1606 89.4055 50.8918 89.6474 50.706 89.9494C50.5167 90.2513 50.4154 90.5725 50.4023 90.9132L50.3579 92.0629C50.4136 92.0011 50.5329 91.9471 50.7159 91.9008C50.8953 91.858 51.1028 91.8216 51.3385 91.7916C51.5705 91.765 51.7971 91.7418 52.0182 91.7219C52.2356 91.7054 52.4121 91.6909 52.5476 91.6784C52.8757 91.6484 53.1836 91.591 53.4712 91.5061C53.755 91.4247 53.9876 91.2933 54.1687 91.1119C54.3462 90.934 54.441 90.6853 54.4534 90.366C54.4702 89.9295 54.3215 89.5933 54.0072 89.3572C53.6893 89.1246 53.2801 88.9987 52.7798 88.9793Z" fill="#1F4788"/>
<path d="M44.5178 83.6343C45.1002 83.8064 45.5786 84.0293 45.9532 84.3029C46.3288 84.5732 46.6205 84.8705 46.8283 85.1948C47.0337 85.5147 47.1779 85.835 47.2608 86.1558L46.1012 86.5462C46.0345 86.371 45.9449 86.1668 45.8324 85.9336C45.7208 85.6969 45.5405 85.4677 45.2913 85.246C45.0397 85.0198 44.6772 84.8367 44.2038 84.6968C43.5704 84.5096 43.0023 84.5084 42.4997 84.6931C41.997 84.8778 41.6491 85.2971 41.4558 85.9509L40.9848 87.5447L41.087 87.5749C41.2178 87.458 41.3961 87.3182 41.622 87.1554C41.8434 86.9949 42.1299 86.8778 42.4813 86.8039C42.8283 86.7324 43.2572 86.7722 43.768 86.9231C44.4014 87.1103 44.9259 87.4283 45.3413 87.8769C45.7533 88.3246 46.0213 88.8777 46.145 89.5364C46.2654 90.1941 46.2048 90.9316 45.9633 91.7489C45.7257 92.5526 45.3776 93.2107 44.9188 93.7231C44.459 94.2389 43.9288 94.5858 43.3281 94.7638C42.7265 94.9452 42.0953 94.9382 41.4346 94.743C40.9238 94.592 40.5437 94.3871 40.2944 94.1282C40.0406 93.8718 39.8654 93.6126 39.7687 93.3508C39.6677 93.0913 39.593 92.8804 39.5447 92.718L39.4221 92.6818L39.0537 93.9282L37.889 93.584L40.2744 85.5129C40.4737 84.8386 40.789 84.3356 41.2203 84.0039C41.6492 83.6678 42.15 83.477 42.7226 83.4314C43.2928 83.3815 43.8912 83.4491 44.5178 83.6343ZM43.2845 87.9578C42.8009 87.8148 42.3595 87.8047 41.9604 87.9275C41.5612 88.0502 41.2134 88.2936 40.9169 88.6578C40.6204 89.0219 40.3866 89.4934 40.2155 90.0724C40.0485 90.6377 39.9861 91.1618 40.0286 91.6446C40.071 92.1274 40.2229 92.5407 40.4842 92.8846C40.7454 93.2284 41.1213 93.4728 41.6117 93.6177C42.1225 93.7687 42.5864 93.7651 43.0035 93.6069C43.4171 93.4478 43.7735 93.1754 44.0726 92.7898C44.3683 92.4032 44.5947 91.9443 44.7517 91.413C44.9127 90.8682 44.97 90.3611 44.9235 89.8919C44.8726 89.4251 44.7138 89.0227 44.4472 88.6847C44.1761 88.349 43.7885 88.1067 43.2845 87.9578Z" fill="#1F4788"/>
<path d="M36.532 83.7025C36.9774 83.9679 37.3316 84.2926 37.5947 84.6766C37.856 85.0638 37.998 85.4811 38.0207 85.9287C38.0416 86.3793 37.9158 86.8334 37.6432 87.291C37.4033 87.6937 37.1295 87.9729 36.8218 88.1286C36.5123 88.2873 36.1822 88.3593 35.8313 88.3445C35.4805 88.3298 35.124 88.2621 34.7618 88.1415C34.3948 88.022 34.0354 87.8864 33.6835 87.7347C33.2237 87.5352 32.8529 87.3701 32.5711 87.2394C32.2845 87.11 32.0592 87.044 31.8954 87.0415C31.7285 87.0371 31.5933 87.1219 31.4897 87.2958L31.4679 87.3324C31.1989 87.7839 31.1134 88.2084 31.2115 88.6058C31.3066 89.0013 31.6027 89.3472 32.1 89.6435C32.6156 89.9506 33.0871 90.0785 33.5144 90.0273C33.9418 89.976 34.2913 89.8576 34.563 89.6722L35.3699 90.649C34.9325 90.9671 34.4903 91.1542 34.0434 91.2104C33.5917 91.2679 33.1562 91.2358 32.7368 91.1141C32.3125 90.9936 31.9235 90.828 31.5696 90.6171C31.3438 90.4826 31.1008 90.3007 30.8407 90.0713C30.5757 89.8432 30.3549 89.5649 30.1785 89.2366C29.999 88.9065 29.9168 88.5206 29.9318 88.079C29.9469 87.6375 30.1207 87.1375 30.4533 86.5792L33.2121 81.9481L34.2921 82.5914L33.7251 83.5433L33.78 83.576C33.9441 83.4671 34.1634 83.3766 34.4378 83.3044C34.7123 83.2323 35.0277 83.2197 35.3841 83.2667C35.7405 83.3137 36.1231 83.459 36.532 83.7025ZM35.7893 84.5745C35.3622 84.3201 34.9522 84.1895 34.5593 84.1829C34.1635 84.1744 33.8117 84.2583 33.5041 84.4347C33.1934 84.6092 32.9509 84.8429 32.7764 85.1358L32.1876 86.1243C32.266 86.0966 32.3967 86.1063 32.5796 86.1532C32.7575 86.2014 32.9572 86.2686 33.1786 86.355C33.395 86.4426 33.6051 86.5306 33.8088 86.6189C34.0076 86.7084 34.1695 86.78 34.2946 86.8338C34.597 86.9644 34.8949 87.0612 35.188 87.1243C35.4763 87.1885 35.7433 87.1843 35.9891 87.1117C36.2301 87.0403 36.4323 86.8673 36.5959 86.5927C36.8194 86.2175 36.8496 85.851 36.6865 85.4935C36.5185 85.1371 36.2194 84.8308 35.7893 84.5745Z" fill="#1F4788"/>
<path d="M30.9879 80.2125L25.593 86.3638L24.6479 85.5349L30.0428 79.3836L30.9879 80.2125ZM24.2133 86.9675C24.3976 87.1291 24.5014 87.3311 24.5248 87.5737C24.5456 87.8139 24.4787 88.0221 24.3242 88.1983C24.1696 88.3745 23.9719 88.468 23.731 88.4787C23.4875 88.4871 23.2736 88.4106 23.0894 88.249C22.9052 88.0874 22.8027 87.8866 22.7819 87.6463C22.7585 87.4038 22.824 87.1944 22.9786 87.0182C23.1331 86.842 23.3322 86.7497 23.5757 86.7413C23.8166 86.7305 24.0291 86.8059 24.2133 86.9675Z" fill="#1F4788"/>
<path d="M23.26 79.6947L27.1319 76.6561L27.908 77.6451L21.4715 82.6962L20.7217 81.7407L21.7274 80.9515L21.6617 80.8677C21.2164 80.9733 20.7741 80.9503 20.3346 80.7987C19.8923 80.6492 19.4804 80.3315 19.0989 79.8454C18.7569 79.4096 18.5471 78.9581 18.4694 78.4909C18.3889 78.026 18.4576 77.5613 18.6754 77.0969C18.8905 76.6347 19.2718 76.1887 19.8194 75.759L23.9092 72.5495L24.6853 73.5384L20.6625 76.6954C20.1569 77.0922 19.866 77.5326 19.7899 78.0166C19.711 78.5028 19.8514 78.975 20.2109 79.4332C20.4587 79.7489 20.7485 79.9773 21.0805 80.1185C21.4103 80.2569 21.7624 80.2943 22.1369 80.2307C22.5113 80.1671 22.8856 79.9884 23.26 79.6947Z" fill="#1F4788"/>
<path d="M18.4242 56.1923C18.4482 56.7102 18.3724 57.1848 18.1969 57.6159C18.0178 58.0473 17.7477 58.3957 17.3868 58.6613C17.0223 58.9271 16.574 59.0722 16.0419 59.0969C15.5736 59.1186 15.1898 59.044 14.8904 58.873C14.5874 58.7022 14.3454 58.4663 14.1643 58.1654C13.9833 57.8645 13.8434 57.5297 13.7445 57.1611C13.642 56.789 13.5571 56.4143 13.4898 56.037C13.403 55.5434 13.3364 55.143 13.2902 54.8358C13.2402 54.5253 13.1712 54.301 13.083 54.1629C12.9947 54.0212 12.8494 53.9551 12.6472 53.9645L12.6047 53.9664C12.0797 53.9908 11.6784 54.1533 11.4008 54.4541C11.1231 54.7514 10.9976 55.1891 11.0244 55.7674C11.0522 56.3669 11.2052 56.8308 11.4835 57.1592C11.7618 57.4876 12.0531 57.714 12.3575 57.8386L11.9871 59.0502C11.4806 58.8604 11.0808 58.5945 10.7876 58.2526C10.4908 57.9073 10.2776 57.5261 10.1481 57.1091C10.0148 56.6887 9.93868 56.2727 9.91961 55.8612C9.90745 55.5987 9.9254 55.2957 9.97347 54.9522C10.0178 54.6053 10.1284 54.2678 10.3052 53.9397C10.4817 53.608 10.7584 53.3268 11.1352 53.096C11.512 52.8653 12.025 52.7348 12.6742 52.7048L18.059 52.4552L18.1172 53.711L17.0104 53.7623L17.0134 53.8261C17.1947 53.903 17.3911 54.0361 17.6025 54.2254C17.8139 54.4147 17.9982 54.671 18.1554 54.9943C18.3125 55.3176 18.4021 55.717 18.4242 56.1923ZM17.2872 56.053C17.2642 55.5564 17.1473 55.1423 16.9364 54.8108C16.7253 54.4758 16.4615 54.2285 16.1448 54.069C15.828 53.9059 15.4993 53.8323 15.1587 53.8481L14.0094 53.9013C14.0757 53.9516 14.1397 54.0659 14.2013 54.2444C14.2592 54.4194 14.313 54.6231 14.3629 54.8555C14.4091 55.0844 14.4514 55.3082 14.49 55.5268C14.5249 55.742 14.5543 55.9166 14.5783 56.0506C14.636 56.375 14.7193 56.6768 14.8282 56.9562C14.9334 57.2322 15.084 57.4527 15.2801 57.6178C15.4725 57.7795 15.7283 57.853 16.0475 57.8382C16.4838 57.818 16.8063 57.6413 17.0148 57.3081C17.2196 56.9716 17.3104 56.5532 17.2872 56.053Z" fill="#1F4788"/>
<path d="M21.908 47.2207C21.7851 47.8154 21.603 48.3108 21.3616 48.7069C21.1237 49.1038 20.8518 49.4193 20.546 49.6534C20.2443 49.8848 19.9371 50.0553 19.6244 50.1647L19.1385 49.0417C19.3076 48.9606 19.5036 48.8543 19.7266 48.7227C19.9531 48.5918 20.1664 48.3929 20.3666 48.126C20.571 47.8564 20.7231 47.4799 20.823 46.9965C20.9566 46.3497 20.9104 45.7835 20.6844 45.298C20.4583 44.8126 20.0115 44.5009 19.3437 44.3629L17.7162 44.0266L17.6946 44.1309C17.822 44.2515 17.9763 44.4176 18.1574 44.6291C18.3358 44.8363 18.4764 45.112 18.5794 45.456C18.6796 45.7958 18.6758 46.2265 18.5681 46.7482C18.4344 47.395 18.1614 47.9442 17.749 48.3956C17.3373 48.8436 16.8085 49.1568 16.1624 49.3352C15.5171 49.51 14.7771 49.5113 13.9425 49.3388C13.1218 49.1692 12.4369 48.8772 11.888 48.4629C11.3355 48.0477 10.9456 47.5483 10.718 46.9647C10.4871 46.3803 10.4413 45.7507 10.5807 45.0761C10.6884 44.5544 10.8609 44.1585 11.098 43.8884C11.3324 43.6141 11.576 43.4179 11.8288 43.2997C12.079 43.1773 12.2829 43.0853 12.4407 43.0236L12.4666 42.8984L11.1937 42.6354L11.4395 41.4461L19.6816 43.149C20.3702 43.2913 20.8977 43.5635 21.2643 43.9656C21.635 44.3649 21.867 44.848 21.9602 45.4148C22.0576 45.9788 22.0402 46.5808 21.908 47.2207ZM17.4966 46.3527C17.5987 45.8589 17.5719 45.4182 17.4163 45.0307C17.2606 44.6432 16.989 44.3169 16.6014 44.0519C16.2137 43.7869 15.7243 43.5933 15.1331 43.4711C14.5558 43.3519 14.0284 43.3335 13.5508 43.4162C13.0732 43.4988 12.674 43.6846 12.3532 43.9737C12.0324 44.2628 11.8202 44.6577 11.7167 45.1585C11.609 45.6802 11.6513 46.1422 11.8437 46.5446C12.0369 46.9435 12.3381 47.2758 12.7473 47.5417C13.1572 47.8041 13.6335 47.9913 14.176 48.1034C14.7324 48.2184 15.2425 48.2331 15.7062 48.1476C16.1671 48.0579 16.5548 47.8661 16.8694 47.5721C17.1812 47.2739 17.3903 46.8674 17.4966 46.3527Z" fill="#1F4788"/>
<path d="M21.1374 39.311C20.9108 39.7773 20.6174 40.1579 20.257 40.4526C19.8935 40.7458 19.4897 40.9227 19.0457 40.9834C18.5985 41.0425 18.1353 40.9556 17.6562 40.7228C17.2346 40.518 16.9332 40.2689 16.752 39.9755C16.5676 39.6806 16.4678 39.3578 16.4527 39.007C16.4376 38.6561 16.4748 38.2952 16.5642 37.9241C16.6521 37.5483 16.7567 37.1786 16.878 36.8151C17.0378 36.34 17.1708 35.9566 17.2771 35.6647C17.3817 35.3681 17.4283 35.1381 17.4169 34.9746C17.4071 34.808 17.3111 34.6804 17.1291 34.592L17.0907 34.5733C16.618 34.3437 16.1878 34.2945 15.8002 34.426C15.4142 34.5543 15.0946 34.8787 14.8417 35.3994C14.5794 35.9392 14.492 36.4198 14.5794 36.8413C14.6667 37.2628 14.8143 37.601 15.0221 37.8559L14.1174 38.7429C13.7633 38.334 13.5393 37.9093 13.4454 37.4688C13.3498 37.0236 13.3448 36.5869 13.4305 36.1587C13.5145 35.7258 13.6465 35.324 13.8265 34.9535C13.9413 34.7172 14.102 34.4596 14.3085 34.1809C14.5133 33.8975 14.7718 33.6539 15.0839 33.4503C15.3976 33.2434 15.7751 33.1287 16.2164 33.1062C16.6577 33.0837 17.1706 33.2145 17.7551 33.4985L22.6037 35.8542L22.0544 36.9849L21.0578 36.5008L21.0299 36.5583C21.1523 36.7125 21.2611 36.9233 21.3563 37.1906C21.4514 37.458 21.4907 37.7712 21.4742 38.1303C21.4576 38.4894 21.3454 38.883 21.1374 39.311ZM20.2055 38.645C20.4228 38.1979 20.518 37.7783 20.4913 37.3863C20.4662 36.9911 20.3527 36.6478 20.1509 36.3562C19.9506 36.0615 19.6971 35.8397 19.3905 35.6907L18.3556 35.1879C18.3898 35.2637 18.3913 35.3947 18.3601 35.5809C18.3272 35.7623 18.2771 35.967 18.2098 36.1949C18.1409 36.418 18.0711 36.6348 18.0004 36.8452C17.9281 37.051 17.8705 37.2184 17.8275 37.3475C17.723 37.66 17.6518 37.9649 17.6139 38.2624C17.5744 38.5551 17.6012 38.8208 17.6945 39.0595C17.7861 39.2935 17.9756 39.4804 18.2631 39.6201C18.656 39.8109 19.0236 39.8099 19.3661 39.617C19.7069 39.4194 19.9867 39.0954 20.2055 38.645Z" fill="#1F4788"/>
<path d="M24.1942 33.399L17.6309 28.5139L18.3814 27.5055L24.9448 32.3906L24.1942 33.399ZM16.9186 27.1869C16.7723 27.3835 16.5792 27.5032 16.3393 27.546C16.1015 27.5859 15.8886 27.5359 15.7006 27.3959C15.5126 27.256 15.4036 27.0664 15.3736 26.8272C15.3457 26.5851 15.405 26.3658 15.5513 26.1692C15.6976 25.9726 15.8896 25.8544 16.1274 25.8145C16.3673 25.7717 16.5812 25.8203 16.7693 25.9602C16.9573 26.1001 17.0652 26.2912 17.0931 26.5332C17.1231 26.7725 17.0649 26.9904 16.9186 27.1869Z" fill="#1F4788"/>
<path d="M23.9443 25.7812L27.2959 29.3856L26.3753 30.2417L20.8038 24.2499L21.6932 23.4229L22.5638 24.3591L22.6418 24.2866C22.4993 23.8517 22.4852 23.409 22.5996 22.9583C22.7116 22.5051 22.9938 22.0681 23.4463 21.6473C23.852 21.2701 24.2844 21.0232 24.7434 20.9068C25.2 20.7877 25.6688 20.8173 26.1498 20.9956C26.6283 21.1713 27.1046 21.514 27.5786 22.0237L31.1187 25.831L30.1981 26.687L26.716 22.9421C26.2783 22.4714 25.8151 22.2184 25.3264 22.183C24.8353 22.1451 24.3765 22.3244 23.95 22.721C23.6561 22.9942 23.4527 23.3022 23.3398 23.6448C23.2294 23.985 23.2216 24.339 23.3162 24.7068C23.4109 25.0746 23.6203 25.4327 23.9443 25.7812Z" fill="#1F4788"/>
<path d="M47.0816 18.8773C46.5674 18.9431 46.0882 18.9059 45.6443 18.7657C45.1999 18.6221 44.8308 18.3811 44.5369 18.0427C44.2426 17.7009 44.0617 17.2658 43.9941 16.7374C43.9347 16.2724 43.9781 15.8838 44.1243 15.5716C44.2701 15.2558 44.4857 14.9955 44.7709 14.7908C45.0562 14.586 45.3786 14.4195 45.7381 14.2912C46.1007 14.159 46.4673 14.0441 46.8379 13.9466C47.3229 13.8201 47.7166 13.7214 48.019 13.6506C48.3245 13.5757 48.5425 13.4888 48.6731 13.3897C48.8071 13.2903 48.8613 13.1401 48.8357 12.9393L48.8303 12.8971C48.7636 12.3757 48.5692 11.9889 48.2469 11.7365C47.9282 11.4837 47.4817 11.394 46.9076 11.4674C46.3123 11.5435 45.8622 11.7335 45.5574 12.0374C45.2526 12.3413 45.0504 12.65 44.9508 12.9634L43.7132 12.6921C43.8615 12.1719 44.0942 11.7519 44.4114 11.4321C44.7315 11.1084 45.0943 10.8651 45.4995 10.7023C45.9077 10.5356 46.3162 10.4261 46.7248 10.3738C46.9855 10.3405 47.2889 10.3339 47.6352 10.3541C47.9845 10.3703 48.3299 10.4532 48.6712 10.6029C49.0161 10.7521 49.3187 11.0052 49.5791 11.3622C49.8396 11.7191 50.011 12.2198 50.0934 12.8645L50.777 18.2116L49.5301 18.371L49.3896 17.272L49.3262 17.2801C49.2642 17.467 49.1473 17.6735 48.9758 17.8995C48.8042 18.1255 48.5636 18.3299 48.254 18.5126C47.9444 18.6954 47.5536 18.817 47.0816 18.8773ZM47.1286 17.7329C47.6218 17.6698 48.025 17.5198 48.3384 17.2828C48.6553 17.0454 48.8805 16.7625 49.0139 16.4339C49.1509 16.105 49.1977 15.7714 49.1545 15.4332L49.0086 14.292C48.9639 14.3621 48.855 14.4351 48.6822 14.5109C48.5123 14.5827 48.3137 14.6529 48.0861 14.7214C47.8617 14.7859 47.6421 14.8462 47.4273 14.9023C47.2155 14.9544 47.0439 14.9978 46.9123 15.0325C46.5936 15.1162 46.2995 15.2237 46.0298 15.3548C45.7633 15.482 45.5556 15.6499 45.4069 15.8587C45.2612 16.0635 45.2087 16.3244 45.2492 16.6414C45.3046 17.0746 45.5067 17.3817 45.8557 17.5627C46.2076 17.7396 46.632 17.7964 47.1286 17.7329Z" fill="#1F4788"/>
<path d="M56.431 21.6251C55.8284 21.5504 55.3199 21.4087 54.9057 21.1999C54.491 20.9946 54.1547 20.749 53.8967 20.4629C53.6418 20.1809 53.4473 19.8884 53.313 19.5855L54.3934 19.0109C54.4878 19.1729 54.6095 19.3597 54.7586 19.5714C54.9073 19.7866 55.1227 19.9833 55.4048 20.1614C55.6899 20.3435 56.0774 20.4649 56.5673 20.5256C57.2228 20.6068 57.7834 20.5153 58.2491 20.251C58.7149 19.9866 58.9897 19.5161 59.0735 18.8395L59.278 17.1902L59.1722 17.1771C59.0623 17.3138 58.9092 17.4808 58.7129 17.6784C58.5206 17.8728 58.2572 18.0352 57.9226 18.1655C57.5919 18.2927 57.1623 18.3235 56.6337 18.258C55.9782 18.1767 55.4088 17.9487 54.9257 17.574C54.4461 17.1996 54.0914 16.6976 53.8617 16.068C53.6356 15.4388 53.5749 14.7013 53.6797 13.8555C53.7828 13.0238 54.0188 12.3177 54.3878 11.7373C54.7572 11.1533 55.2236 10.7244 55.7871 10.4508C56.3511 10.1736 56.9749 10.0773 57.6586 10.1621C58.1872 10.2276 58.5957 10.3677 58.8839 10.5823C59.1762 10.7939 59.3914 11.0209 59.5295 11.2635C59.6716 11.503 59.7797 11.6988 59.8538 11.8512L59.9807 11.8669L60.1406 10.577L61.3458 10.7264L60.3106 19.0787C60.2241 19.7765 59.9952 20.3242 59.6239 20.7219C59.2556 21.1236 58.7928 21.3936 58.2353 21.5321C57.6809 21.6745 57.0795 21.7055 56.431 21.6251ZM56.9417 17.1583C57.4421 17.2203 57.8792 17.1582 58.253 16.9719C58.6268 16.7856 58.9302 16.4887 59.1632 16.081C59.3962 15.6733 59.5498 15.1699 59.6241 14.5708C59.6966 13.9858 59.6725 13.4586 59.5518 12.9892C59.431 12.5198 59.2137 12.1368 58.8998 11.8403C58.5859 11.5437 58.1752 11.364 57.6677 11.3011C57.1391 11.2356 56.6819 11.3149 56.2963 11.5391C55.9142 11.7636 55.6071 12.0906 55.375 12.5198C55.1464 12.9495 54.998 13.4392 54.9299 13.989C54.86 14.5529 54.8863 15.0625 55.0088 15.5178C55.1352 15.97 55.3576 16.3411 55.6759 16.631C55.9982 16.9179 56.4201 17.0936 56.9417 17.1583Z" fill="#1F4788"/>
<path d="M64.1688 20.1905C63.6854 20.0029 63.2821 19.7417 62.9588 19.4067C62.6368 19.0684 62.4274 18.6805 62.3306 18.2429C62.2351 17.8021 62.2836 17.3333 62.4764 16.8368C62.646 16.3998 62.8695 16.0789 63.147 15.8743C63.4258 15.6663 63.7394 15.5404 64.0878 15.4966C64.4362 15.4528 64.799 15.4603 65.1762 15.5191C65.5579 15.5758 65.9349 15.6498 66.3071 15.7409C66.7937 15.8612 67.1868 15.9623 67.4864 16.0443C67.7906 16.1243 68.0237 16.1519 68.1856 16.1271C68.3509 16.1037 68.4702 15.9976 68.5434 15.8089L68.5588 15.7692C68.749 15.2792 68.7627 14.8464 68.5999 14.4709C68.4404 14.0966 68.0909 13.8048 67.5512 13.5954C66.9918 13.3782 66.5056 13.3305 66.0927 13.4521C65.6798 13.5737 65.3548 13.7485 65.1178 13.9765L64.1596 13.1475C64.5381 12.7612 64.943 12.5031 65.3743 12.3734C65.8102 12.2416 66.245 12.2009 66.6788 12.2511C67.1172 12.2994 67.5284 12.398 67.9124 12.5471C68.1574 12.6421 68.4272 12.7812 68.7219 12.9641C69.0212 13.145 69.2851 13.3827 69.5137 13.6771C69.7455 13.9728 69.8908 14.3396 69.9493 14.7775C70.0079 15.2155 69.9196 15.7373 69.6845 16.3432L67.7341 21.3686L66.5622 20.9137L66.963 19.8808L66.9035 19.8577C66.7598 19.9924 66.5586 20.1181 66.3 20.2349C66.0413 20.3516 65.7324 20.4165 65.3731 20.4294C65.0138 20.4423 64.6124 20.3627 64.1688 20.1905ZM64.7561 19.2072C65.2196 19.387 65.6456 19.4476 66.0341 19.3889C66.4259 19.3314 66.7588 19.1902 67.0328 18.9651C67.3101 18.7413 67.5104 18.4706 67.6337 18.1527L68.05 17.0801C67.9773 17.1204 67.8468 17.1327 67.6587 17.1168C67.4752 17.0989 67.2671 17.0658 67.0345 17.0174C66.8064 16.967 66.5847 16.9152 66.3691 16.862C66.1582 16.8068 65.9866 16.7631 65.8544 16.7308C65.5344 16.6523 65.2246 16.6064 64.9251 16.593C64.6302 16.5775 64.3675 16.6261 64.1372 16.7386C63.9115 16.849 63.7408 17.0532 63.6252 17.3512C63.4671 17.7584 63.4983 18.1247 63.7186 18.4502C63.9435 18.7737 64.2893 19.026 64.7561 19.2072Z" fill="#1F4788"/>
<path d="M70.1822 22.671L74.498 15.72L75.566 16.3831L71.2502 23.3341L70.1822 22.671ZM75.7604 14.8987C75.5522 14.7695 75.4167 14.5871 75.3539 14.3516C75.2941 14.1181 75.3261 13.9017 75.4497 13.7026C75.5733 13.5035 75.7531 13.3789 75.989 13.3289C76.2278 13.2808 76.4514 13.3213 76.6595 13.4506C76.8677 13.5798 77.0017 13.7613 77.0615 13.9948C77.1243 14.2303 77.0939 14.4476 76.9702 14.6467C76.8466 14.8458 76.6653 14.9694 76.4264 15.0176C76.1906 15.0676 75.9686 15.028 75.7604 14.8987Z" fill="#1F4788"/>
<path d="M77.9837 21.9585L74.6584 25.5872L73.7316 24.7379L79.2593 18.7058L80.1547 19.5263L79.291 20.4689L79.3695 20.5408C79.7916 20.3641 80.2318 20.3147 80.6902 20.3927C81.1509 20.4681 81.609 20.7146 82.0646 21.132C82.473 21.5063 82.7536 21.9176 82.9064 22.3658C83.0615 22.8115 83.0695 23.2811 82.9301 23.7748C82.7932 24.2659 82.4896 24.768 82.0194 25.2811L78.507 29.114L77.5802 28.2647L81.035 24.4947C81.4693 24.0208 81.6845 23.5389 81.6807 23.0489C81.6793 22.5563 81.464 22.1133 81.0346 21.7199C80.7387 21.4488 80.4155 21.2706 80.065 21.1853C79.717 21.1025 79.3635 21.1229 79.0045 21.2467C78.6454 21.3704 78.3051 21.6077 77.9837 21.9585Z" fill="#1F4788"/>
<path d="M86.6675 44.355C86.5587 43.8481 86.5555 43.3675 86.6578 42.9133C86.7635 42.4584 86.9726 42.0704 87.285 41.7491C87.6009 41.4271 88.0193 41.2102 88.5401 41.0984C88.9984 41 89.3893 41.0106 89.7128 41.1301C90.0397 41.2488 90.3172 41.4416 90.5452 41.7087C90.7732 41.9758 90.9662 42.283 91.1243 42.6304C91.2866 42.9806 91.4319 43.3362 91.5603 43.6973C91.7271 44.17 91.8585 44.554 91.9546 44.8494C92.0549 45.1475 92.1599 45.3574 92.2695 45.4791C92.3799 45.6043 92.5341 45.6457 92.732 45.6033L92.7737 45.5943C93.2875 45.484 93.6566 45.2577 93.881 44.9154C94.1061 44.5765 94.1579 44.1241 94.0365 43.5582C93.9106 42.9714 93.6834 42.5389 93.3549 42.2607C93.0265 41.9825 92.7019 41.807 92.3812 41.7342L92.5475 40.4782C93.0783 40.5822 93.5163 40.7787 93.8617 41.0678C94.2112 41.3597 94.4841 41.7006 94.6804 42.0907C94.8809 42.4835 95.0244 42.8813 95.1108 43.2841C95.166 43.541 95.1981 43.8428 95.2071 44.1896C95.2203 44.539 95.1667 44.8901 95.0463 45.2428C94.9266 45.599 94.6999 45.9219 94.3661 46.2114C94.0324 46.501 93.5478 46.7139 92.9124 46.8503L87.6418 47.9813L87.378 46.7522L88.4613 46.5197L88.4479 46.4572C88.2564 46.4111 88.0409 46.3121 87.8012 46.1601C87.5616 46.0082 87.3377 45.7856 87.1295 45.4925C86.9213 45.1994 86.7673 44.8202 86.6675 44.355ZM87.8118 44.3055C87.9162 44.7916 88.0996 45.1808 88.362 45.4732C88.6253 45.769 88.9262 45.9696 89.2648 46.0749C89.6041 46.1837 89.9404 46.2023 90.2737 46.1308L91.3987 45.8894C91.325 45.8507 91.2432 45.7484 91.1531 45.5825C91.0672 45.4193 90.9806 45.2273 90.8932 45.0063C90.8101 44.7881 90.7315 44.5743 90.6575 44.365C90.5878 44.1584 90.5301 43.991 90.4844 43.8628C90.3742 43.5523 90.2424 43.2682 90.0891 43.0106C89.9399 42.7556 89.7551 42.5629 89.5346 42.4322C89.3182 42.3043 89.0538 42.2739 88.7414 42.3409C88.3143 42.4326 88.0253 42.6598 87.8743 43.0227C87.7276 43.3884 87.7068 43.816 87.8118 44.3055Z" fill="#1F4788"/>
</svg>
