<svg width="91" height="107" viewBox="0 0 91 107" fill="none" xmlns="http://www.w3.org/2000/svg">
<path fill-rule="evenodd" clip-rule="evenodd" d="M47.2052 66.5621C52.4087 66.5621 55.7869 65.6211 59.5353 63.9359C63.2838 62.2508 76.0909 58.0848 82.0259 56.2124C83.9001 54.9642 86.9691 51.3208 84.2515 46.7335L82.9941 45.3377L81.5529 44.444L78.9687 43.6497L77.0803 43.3022L75.3906 42.9546L74.3967 42.5575L74.0985 42.2596L75.3906 41.7631L78.9687 40.6709L82.5468 39.4297C83.0463 39.1701 84.1431 38.3715 84.5346 37.2539L90.2383 34.7737L84.8329 32.579C84.5914 31.071 83.4997 27.9463 81.0651 27.512C80.3406 27.1501 78.5364 26.419 77.1163 26.39C76.5163 26.355 75.0728 26.1181 74.0985 25.4508L74.3967 25.0016L75.8974 24.5157L81.0651 22.7491C82.6834 22.1217 85.8113 19.9133 85.3764 16.0998C84.8329 11.3329 82.5696 10.5851 80.137 10.1177C79.7577 10.0449 78.7171 9.9568 77.1904 9.82759C68.9256 9.12808 46.4176 7.22308 37.4952 0H16.9011C17.4954 0.905216 18.0075 1.8817 18.5401 2.89735C21.4635 8.47231 25.0058 15.2275 46.1807 17.8552L53.091 18.9183C53.177 18.9688 53.2655 19.0205 53.3561 19.0733C55.9206 20.5694 60.1102 23.0135 55.1801 28.5115C54.5658 28.9471 52.4298 29.6295 48.7998 28.8748C48.2517 28.7609 47.3378 28.6323 46.1287 28.4623C37.7007 27.2768 14.9281 24.0738 1.69279 9.72872C1.03023 8.99162 0.46088 8.33015 0 7.76577C0.544362 8.44226 1.10931 9.09632 1.69279 9.72872C5.4012 13.8544 12.0295 20.3494 18.9004 25.4508C22.6797 28.2567 30.8626 32.579 48.7998 34.7737C51.1091 34.8264 57.2339 35.865 57.2339 39.4297L57.2394 39.4624C57.3507 40.1285 57.4979 41.0096 57.2339 43.6497C56.9656 46.3334 52.7616 46.2077 50.6931 46.0498C38.763 45.5484 13.5705 42.5913 8.24084 34.7737C9.74773 37.5805 16.1401 44.2161 29.6545 48.3045C35.7689 49.5326 48.4594 51.8462 50.3062 51.2757C52.1328 51.4342 56.0756 52.3216 57.2339 54.6035C58.8829 57.8518 54.1912 61.0212 52.1196 61.8532C50.048 62.6851 35.1132 60.86 31.0448 60.0879C23.2494 58.6085 20.7654 58.1386 18.5195 57.1356C17.2351 56.562 16.0286 55.8141 13.9511 54.6035C8.24084 51.2757 20.0024 62.1731 29.6545 63.9359C36.1161 65.1161 39.3006 65.5306 44.145 66.1612C44.6454 66.2264 45.1635 66.2938 45.7047 66.3647L47.2052 66.5621ZM79.2247 32.4493C79.901 32.4493 80.4493 31.901 80.4493 31.2247C80.4493 30.5483 79.901 30 79.2247 30C78.5483 30 78 30.5483 78 31.2247C78 31.901 78.5483 32.4493 79.2247 32.4493Z" fill="white"/>
<path d="M25.392 95.504H40.848V102.944H39.024V96.776H27.144V102.992H25.392V95.504ZM26.304 98.216H39.72V99.416H26.304V98.216ZM26.304 100.952H39.72V102.2H26.304V100.952ZM31.992 80.816H33.816V93.848H31.992V80.816ZM24.888 82.496H40.728V89.048H24.6V87.872H38.928V83.696H24.888V82.496ZM22.344 85.088H43.656V86.432H22.344V85.088ZM23.952 90.392H42.048V91.616H23.952V90.392ZM22.296 93.032H43.68V94.376H22.296V93.032ZM58.056 84.056H67.68V85.712H58.056V84.056ZM57.84 90.56H59.544V102.944H57.84V90.56ZM58.56 80.84L60.336 81.2C59.472 84.416 57.96 87.392 56.136 89.336C55.824 89.024 55.104 88.448 54.672 88.208C56.448 86.432 57.816 83.72 58.56 80.84ZM62.568 89.336C63.36 94.64 65.064 99.32 68.328 101.384C67.896 101.696 67.344 102.392 67.08 102.848C63.624 100.4 61.92 95.48 61.008 89.552L62.568 89.336ZM66.888 90.56L68.184 91.664C66.84 92.984 64.968 94.424 63.576 95.36L62.472 94.328C63.84 93.368 65.784 91.76 66.888 90.56ZM46.08 84.728H55.872V86.432H46.08V84.728ZM49.728 89.552H54.024V91.208H49.728V89.552ZM50.28 80.888H52.032V85.376H50.28V80.888ZM53.376 89.552H55.056C55.056 89.552 55.056 90.128 55.032 90.368C54.864 98.456 54.72 101.192 54.12 102.032C53.736 102.56 53.328 102.728 52.704 102.8C52.128 102.872 51.12 102.848 50.136 102.824C50.088 102.32 49.944 101.624 49.68 101.168C50.64 101.264 51.528 101.288 51.912 101.288C52.272 101.288 52.464 101.216 52.632 100.952C53.064 100.376 53.256 97.712 53.376 89.912V89.552ZM48.864 85.832H50.472V89.744C50.472 93.824 50.088 98.768 47.016 102.992C46.704 102.632 46.104 102.2 45.648 101.912C48.552 98 48.864 93.296 48.864 89.744V85.832ZM65.52 86.408L66.84 87.368C64.464 89.192 59.952 91.16 56.544 92.12C56.304 91.64 55.848 90.992 55.44 90.608C58.848 89.864 63.36 88.064 65.52 86.408Z" fill="white"/>
</svg>
