<svg width="97" height="29" viewBox="0 0 97 29" fill="none" xmlns="http://www.w3.org/2000/svg">
<path fill-rule="evenodd" clip-rule="evenodd" d="M20.7301 29C23.0152 29 24.4988 28.59 26.1449 27.8558C27.791 27.1216 33.4152 25.3066 36.0216 24.4908C36.8446 23.947 38.1924 22.3596 36.9989 20.361L36.4467 19.7529L35.8139 19.3635L34.679 19.0174L33.8497 18.866L33.1077 18.7146L32.6712 18.5416L32.5403 18.4118L33.1077 18.1955L34.679 17.7196L36.2503 17.1789C36.4697 17.0658 36.9513 16.7178 37.1233 16.2309L39.628 15.1503L37.2543 14.1941C37.1482 13.5371 36.6688 12.1757 35.5997 11.9865C35.2815 11.8288 34.4892 11.5103 33.8655 11.4977C33.602 11.4824 32.9681 11.3792 32.5403 11.0885L32.6712 10.8928L33.3302 10.6811L35.5997 9.91141C36.3103 9.63803 37.6839 8.67591 37.493 7.01441C37.2543 4.93754 36.2603 4.61175 35.1921 4.40813C35.0255 4.37638 34.5685 4.33801 33.8981 4.28171C30.2686 3.97695 20.3842 3.14698 16.466 0H7.42208C7.6831 0.394387 7.90797 0.819823 8.14185 1.26233C9.42566 3.69124 10.9813 6.63436 20.2802 7.7792L23.3148 8.24238C23.3526 8.2644 23.3915 8.2869 23.4312 8.30992C24.5575 8.96174 26.3973 10.0266 24.2323 12.422C23.9625 12.6117 23.0245 12.9091 21.4304 12.5803C21.1897 12.5306 20.7883 12.4746 20.2574 12.4005C16.5562 11.8841 6.55565 10.4885 0.743387 4.23864C0.452426 3.9175 0.202396 3.62931 0 3.38341C0.239057 3.67815 0.487152 3.96311 0.743387 4.23864C2.37193 6.03613 5.28273 8.86591 8.3001 11.0885C9.95978 12.311 13.5533 14.1941 21.4304 15.1503C22.4445 15.1733 25.1342 15.6258 25.1342 17.1789L25.1366 17.1931C25.1855 17.4833 25.2501 17.8672 25.1342 19.0174C25.0164 20.1867 23.1702 20.1319 22.2618 20.0631C17.0227 19.8447 5.95945 18.5563 3.61896 15.1503C4.2807 16.3732 7.0879 19.2642 13.0227 21.0455C15.7079 21.5805 21.2809 22.5885 22.0919 22.34C22.8941 22.409 24.6255 22.7956 25.1342 23.7898C25.8584 25.2051 23.798 26.5859 22.8883 26.9484C21.9785 27.3108 15.4199 26.5157 13.6333 26.1793C10.2078 25.5343 9.11776 25.3297 8.13099 24.8922C7.56765 24.6424 7.03797 24.3167 6.12663 23.7898C3.61896 22.34 8.78402 27.0878 13.0227 27.8558C15.8603 28.37 17.2588 28.5506 19.3861 28.8253C19.6069 28.8538 19.8356 28.8834 20.0746 28.9144L20.7301 29ZM34.1064 13.5042C34.4034 13.5042 34.6442 13.2653 34.6442 12.9707C34.6442 12.676 34.4034 12.4371 34.1064 12.4371C33.8093 12.4371 33.5686 12.676 33.5686 12.9707C33.5686 13.2653 33.8093 13.5042 34.1064 13.5042Z" fill="#084A8E"/>
<path d="M87.6385 5.99398C90.2002 6.02394 92.7632 6.03018 95.3275 6.0127C96.0107 6.00522 96.5127 6.21493 96.3919 6.98263C96.3657 7.15664 96.2773 7.31552 96.1429 7.43031C96.0085 7.5451 95.837 7.60817 95.6597 7.60803H86.6457C86.5836 7.60799 86.5225 7.62382 86.4683 7.65399C86.4141 7.68416 86.3686 7.72765 86.3362 7.78029C85.6442 8.91874 84.776 9.90239 83.7317 10.7313C83.6777 10.7745 83.6132 10.8029 83.5449 10.8134C83.4766 10.8239 83.4069 10.8163 83.3429 10.7912C82.8673 10.6114 82.6546 10.2694 82.705 9.76508C82.7148 9.64215 82.7701 9.52843 82.8597 9.44676C84.664 7.77405 85.9097 5.7568 86.5967 3.39503C86.6407 3.24539 86.7382 3.1168 86.8709 3.03338C87.0036 2.94996 87.1625 2.91743 87.3176 2.9419C88.8011 3.17408 87.7291 5.01656 87.5026 5.81423C87.4966 5.83557 87.4956 5.85798 87.4996 5.87969C87.5036 5.90139 87.5126 5.92178 87.5258 5.93924C87.539 5.9567 87.5561 5.97073 87.5756 5.98024C87.5952 5.98974 87.6167 5.99445 87.6385 5.99398Z" fill="#084A8E"/>
<path d="M78.0849 8.37941V11.9895C78.0849 12.0399 78.1045 12.0883 78.1397 12.1246C78.1749 12.1609 78.2229 12.1823 78.2736 12.1842C79.2286 12.2067 80.8631 11.982 81.5538 12.5213C82.7202 13.4275 81.618 23.0294 81.5085 23.5312C81.0669 25.5385 79.5533 25.8006 77.6546 25.7594C76.7147 25.737 76.5562 23.9918 78.1944 24.224C79.3909 24.3925 79.9685 23.726 80.0817 22.5725C80.3686 19.6915 80.4957 16.8079 80.463 13.9218C80.462 13.8609 80.4369 13.8028 80.3931 13.7601C80.3493 13.7173 80.2903 13.6934 80.2289 13.6934H78.2321C78.178 13.6933 78.1259 13.7139 78.0865 13.7508C78.0472 13.7877 78.0236 13.8382 78.0207 13.8919C77.7943 17.8864 76.9739 21.7474 75.5597 25.4748C75.3558 26.0178 74.8236 26.3399 74.2989 26.0927C74.1749 26.0332 74.0777 25.9302 74.0261 25.8035C73.9744 25.6768 73.9721 25.5357 74.0196 25.4074C76.0453 19.9374 76.8758 14.2801 76.5109 8.43559C76.5079 8.37755 76.4846 8.32246 76.4453 8.28C76.4059 8.23753 76.353 8.21041 76.2957 8.2034C75.5219 8.10229 73.7818 8.52546 74.0158 7.15858C74.0433 6.99815 74.1268 6.85244 74.2517 6.74699C74.3767 6.64155 74.535 6.58309 74.699 6.58187L77.33 6.57438C77.38 6.57438 77.428 6.55505 77.4634 6.52063C77.4988 6.48622 77.5187 6.43955 77.5187 6.39088V3.68333C77.5189 3.58636 77.54 3.49056 77.5805 3.40232C77.621 3.31407 77.6801 3.23543 77.7537 3.17162C77.8273 3.10782 77.9137 3.06033 78.0073 3.03233C78.1009 3.00433 78.1994 2.99646 78.2963 3.00925C79.5835 3.18151 79.1041 5.43593 79.1569 6.38713C79.1598 6.4388 79.1826 6.48739 79.2205 6.52292C79.2584 6.55845 79.3086 6.5782 79.3607 6.57812L81.8747 6.58187C82.0351 6.58198 82.1917 6.63085 82.3233 6.72191C82.4549 6.81296 82.5552 6.94184 82.6107 7.09117C83.2034 8.69024 79.0248 8.17719 78.2736 8.19217C78.2236 8.19217 78.1756 8.2119 78.1402 8.24701C78.1048 8.28213 78.0849 8.32975 78.0849 8.37941Z" fill="#084A8E"/>
<path d="M57.2299 7.38336V6.34229C57.2299 6.28071 57.2048 6.22165 57.1602 6.17811C57.1156 6.13457 57.0551 6.1101 56.9921 6.1101H50.2316C50.1443 6.11002 50.0584 6.08879 49.9812 6.04824C49.9041 6.0077 49.8381 5.94908 49.789 5.87748C49.7399 5.80587 49.7091 5.72345 49.6994 5.63738C49.6897 5.55131 49.7014 5.46419 49.7334 5.3836L49.9145 4.91548C49.9388 4.85386 49.9817 4.8009 50.0376 4.7635C50.0934 4.7261 50.1597 4.70599 50.2278 4.70577H56.9619C57.0086 4.70582 57.0548 4.69509 57.0967 4.67442C57.1385 4.65376 57.175 4.62372 57.2032 4.58668C57.2314 4.54965 57.2505 4.50662 57.2591 4.461C57.2676 4.41538 57.2654 4.36841 57.2525 4.32379C56.875 2.99436 58.7133 2.34275 58.7699 4.32005C58.7729 4.42173 58.8154 4.51833 58.8886 4.58956C58.9618 4.66079 59.06 4.7011 59.1625 4.70203C60.5843 4.70952 62.0778 4.70952 63.643 4.70203C65.4473 4.69454 65.9305 5.06154 65.7795 6.88904C65.7723 6.97653 65.7828 7.06457 65.8104 7.14798C65.8379 7.2314 65.882 7.30851 65.94 7.37479C65.9981 7.44107 66.0688 7.49518 66.1482 7.53395C66.2276 7.57272 66.314 7.59537 66.4023 7.60057C67.1271 7.64176 68.6973 7.28225 69.0748 8.12485C69.344 8.72403 69.149 9.02238 68.4897 9.01988L66.1041 9.00864C66.041 9.00831 65.9799 9.03143 65.9325 9.07358C65.8852 9.11572 65.8549 9.17394 65.8474 9.23708C65.6663 10.7912 66.1645 11.9297 63.9261 11.9147C62.2728 11.9022 60.6183 11.9109 58.9624 11.9409C58.9131 11.9419 58.866 11.9616 58.8314 11.9959C58.7969 12.0302 58.7775 12.0764 58.7775 12.1244L58.7737 13.2067C58.7737 13.2593 58.7948 13.3098 58.8323 13.347C58.8698 13.3842 58.9207 13.4051 58.9738 13.4051L66.4099 13.4164C66.5748 13.4164 66.733 13.4808 66.8503 13.5958C66.9676 13.7108 67.0345 13.867 67.0365 14.0305C67.0465 14.5348 66.7659 14.782 66.1947 14.772C63.7865 14.7271 61.377 14.7183 58.9662 14.7458C58.9162 14.7458 58.8681 14.7655 58.8328 14.8007C58.7974 14.8358 58.7775 14.8834 58.7775 14.9331V16.0078C58.7775 16.0585 58.7978 16.1071 58.8339 16.1429C58.87 16.1787 58.9189 16.1988 58.97 16.1988C61.8866 16.2263 64.7968 16.2338 67.7008 16.2213C68.2796 16.2188 68.7137 16.2875 69.0031 16.4273C69.0747 16.4626 69.132 16.5208 69.1656 16.5923C69.1993 16.6638 69.2072 16.7443 69.188 16.8205L69.0484 17.3747C69.0313 17.4454 68.9908 17.5082 68.9332 17.5531C68.8756 17.5979 68.8045 17.6222 68.7313 17.6219C61.6274 17.6269 54.5222 17.6106 47.4157 17.5732C47.0106 17.5707 46.7816 17.3335 46.7287 16.8617C46.7203 16.7809 46.729 16.6992 46.7543 16.622C46.7797 16.5448 46.8211 16.4737 46.8759 16.4133C46.9307 16.3529 46.9976 16.3047 47.0724 16.2716C47.1472 16.2385 47.2281 16.2214 47.31 16.2213H57.0034C57.0351 16.2213 57.0665 16.215 57.0956 16.2026C57.1248 16.1902 57.1511 16.1721 57.173 16.1494C57.1949 16.1266 57.2119 16.0997 57.223 16.0702C57.234 16.0407 57.2389 16.0093 57.2374 15.9779L57.1997 14.9705C57.1977 14.9043 57.1694 14.8414 57.1208 14.7952C57.0721 14.7491 57.007 14.7233 56.9392 14.7233H49.5106C49.4335 14.7233 49.3571 14.7082 49.2859 14.6788C49.2146 14.6494 49.15 14.6063 49.0956 14.552C49.0412 14.4977 48.9982 14.4333 48.969 14.3624C48.9398 14.2916 48.9251 14.2157 48.9256 14.1391C48.9293 13.6373 49.303 13.4014 49.79 13.4051C52.1982 13.4326 54.6065 13.4226 57.0147 13.3752C57.0651 13.3742 57.1131 13.3533 57.1484 13.3168C57.1837 13.2804 57.2035 13.2315 57.2034 13.1804V12.1319C57.2034 12.0819 57.1833 12.0338 57.1473 11.9981C57.1113 11.9624 57.0623 11.9419 57.0109 11.9409C54.9927 11.9109 52.9821 11.9022 50.979 11.9147C50.3977 11.9184 50.0316 12.0083 49.7485 11.3979C49.4767 10.8112 49.6667 10.5166 50.3184 10.5141L56.9883 10.5066C57.0178 10.5066 57.0471 10.5008 57.0744 10.4894C57.1017 10.4781 57.1264 10.4615 57.1471 10.4406C57.1678 10.4197 57.1842 10.3948 57.1951 10.3676C57.2061 10.3404 57.2115 10.3112 57.211 10.2819L57.2034 9.24457C57.2034 9.18399 57.1796 9.12588 57.1371 9.08304C57.0946 9.0402 57.037 9.01613 56.977 9.01613C54.0881 9.01364 51.208 9.01114 48.3367 9.00864C47.6573 9.0049 47.1213 9.20338 46.8571 8.38325C46.8285 8.29491 46.8213 8.20112 46.8363 8.10954C46.8512 8.01795 46.8878 7.93118 46.943 7.8563C46.9983 7.78143 47.0706 7.72058 47.154 7.67874C47.2375 7.6369 47.3297 7.61524 47.4233 7.61555L57.0109 7.60057C57.069 7.60057 57.1247 7.57768 57.1657 7.53695C57.2068 7.49622 57.2299 7.44097 57.2299 7.38336ZM64.3084 6.28716C64.3084 6.26454 64.304 6.24213 64.2953 6.22122C64.2866 6.2003 64.2738 6.18129 64.2578 6.16526C64.2417 6.14924 64.2225 6.13652 64.2015 6.12782C64.1804 6.11913 64.1579 6.11464 64.1351 6.1146L58.9562 6.10561C58.9334 6.10557 58.9108 6.10999 58.8897 6.11861C58.8687 6.12723 58.8495 6.13988 58.8333 6.15585C58.8172 6.17182 58.8044 6.19079 58.7956 6.21167C58.7868 6.23256 58.7823 6.25495 58.7823 6.27758L58.7802 7.42351C58.7802 7.44613 58.7846 7.46854 58.7933 7.48946C58.802 7.51037 58.8148 7.52938 58.8309 7.54541C58.847 7.56143 58.8661 7.57415 58.8871 7.58285C58.9082 7.59154 58.9308 7.59603 58.9536 7.59607L64.1324 7.60506C64.1552 7.6051 64.1778 7.60068 64.1989 7.59206C64.22 7.58344 64.2391 7.57079 64.2553 7.55482C64.2714 7.53885 64.2843 7.51988 64.293 7.499C64.3018 7.47811 64.3063 7.45572 64.3064 7.4331L64.3084 6.28716ZM64.3122 9.19323C64.3122 9.17011 64.3077 9.14721 64.2988 9.12584C64.2899 9.10447 64.2769 9.08504 64.2604 9.06866C64.244 9.05228 64.2244 9.03928 64.2029 9.0304C64.1814 9.02152 64.1584 9.01692 64.1351 9.01688L58.926 9.0079C58.879 9.00782 58.8338 9.02628 58.8005 9.05922C58.7672 9.09217 58.7484 9.13689 58.7483 9.18357L58.7463 10.3295C58.7462 10.3526 58.7508 10.3755 58.7596 10.3969C58.7685 10.4183 58.7815 10.4377 58.798 10.4541C58.8144 10.4704 58.834 10.4834 58.8555 10.4923C58.877 10.5012 58.9001 10.5058 58.9234 10.5058L64.1324 10.5148C64.1795 10.5149 64.2246 10.4965 64.2579 10.4635C64.2913 10.4306 64.31 10.3858 64.3101 10.3392L64.3122 9.19323Z" fill="#084A8E"/>
<path d="M89.2767 13.6298L88.4727 13.9744C88.4144 13.9987 88.3646 14.0395 88.3297 14.0915C88.2947 14.1434 88.2762 14.2043 88.2764 14.2665V25.3101C88.2767 25.4133 88.2532 25.5152 88.2077 25.608C88.1623 25.7008 88.0961 25.7821 88.0142 25.8456C87.9323 25.9092 87.8368 25.9534 87.7351 25.9748C87.6333 25.9962 87.528 25.9943 87.4271 25.9692C86.442 25.7258 86.5741 25.1454 86.5778 24.3252C86.5929 21.2569 86.5829 18.1899 86.5476 15.124C86.5474 15.1 86.5413 15.0764 86.5298 15.0552C86.5184 15.034 86.502 15.0158 86.482 15.0022C86.462 14.9886 86.439 14.98 86.415 14.9771C86.3909 14.9742 86.3665 14.9771 86.3438 14.9855L83.879 15.8955C83.7012 15.9603 83.5053 15.9557 83.3314 15.8826C83.1574 15.8095 83.0185 15.6735 82.9428 15.5023C82.7189 14.998 82.861 14.6559 83.3694 14.4762C87.0107 13.1979 90.3261 11.4353 93.3156 9.1884C93.3904 9.13177 93.4778 9.09387 93.5705 9.0779C93.6632 9.06193 93.7584 9.06836 93.848 9.09666C93.9377 9.12496 94.0191 9.17428 94.0855 9.24045C94.1518 9.30661 94.2011 9.38767 94.2291 9.47675C94.4178 10.0784 94.2744 10.5391 93.7988 10.8586C92.8904 11.4703 91.9643 12.0582 91.0206 12.6225C90.9683 12.6536 90.9276 12.7007 90.9045 12.7567C90.8813 12.8127 90.8771 12.8747 90.8923 12.9333L91.6812 15.918C91.6899 15.9504 91.7055 15.9807 91.727 16.0067C91.7485 16.0327 91.7753 16.0539 91.8057 16.0688C91.8361 16.0837 91.8693 16.092 91.9032 16.0931C91.937 16.0942 91.9707 16.0881 92.0021 16.0752C93.4943 15.4486 94.906 14.6747 96.2372 13.7534C96.3019 13.7084 96.3769 13.68 96.4553 13.6706C96.5338 13.6613 96.6133 13.6713 96.6869 13.6999C96.7605 13.7284 96.8259 13.7746 96.8772 13.8342C96.9284 13.8939 96.9641 13.9652 96.9808 14.0418C97.2941 15.4611 93.6705 17.004 92.5985 17.4721C92.5761 17.4818 92.5559 17.4958 92.5391 17.5135C92.5223 17.5311 92.5093 17.5519 92.5008 17.5746C92.4924 17.5974 92.4886 17.6216 92.4898 17.6458C92.491 17.67 92.4972 17.6937 92.5079 17.7155C93.4515 19.6828 94.7299 21.3855 96.3429 22.8235C96.8211 23.2529 96.9116 23.7223 96.6147 24.2316C96.5723 24.3041 96.5141 24.3664 96.4445 24.4139C96.3748 24.4614 96.2953 24.4929 96.2119 24.5061C96.1284 24.5194 96.043 24.5141 95.9619 24.4906C95.8807 24.467 95.8059 24.4259 95.7428 24.3702C92.5368 21.5141 90.4771 17.9826 89.5636 13.7759C89.5573 13.7459 89.5442 13.7177 89.5255 13.6933C89.5067 13.669 89.4827 13.6491 89.4552 13.6351C89.4278 13.6211 89.3975 13.6133 89.3666 13.6124C89.3357 13.6115 89.305 13.6175 89.2767 13.6298Z" fill="#084A8E"/>
<path d="M65.7266 24.3739C65.7266 24.7433 65.5787 25.0977 65.3154 25.3589C65.052 25.6202 64.6949 25.767 64.3225 25.767H51.6471C51.2747 25.767 50.9175 25.6202 50.6542 25.3589C50.3909 25.0977 50.2429 24.7433 50.2429 24.3739V20.3294C50.2429 19.9599 50.3909 19.6056 50.6542 19.3443C50.9175 19.0831 51.2747 18.9363 51.6471 18.9363H64.3225C64.6949 18.9363 65.052 19.0831 65.3154 19.3443C65.5787 19.6056 65.7266 19.9599 65.7266 20.3294V24.3739ZM64.2168 20.4342C64.2168 20.4092 64.2118 20.3843 64.2021 20.3611C64.1924 20.338 64.1783 20.3169 64.1604 20.2992C64.1425 20.2814 64.1213 20.2674 64.0979 20.2578C64.0746 20.2482 64.0495 20.2432 64.0243 20.2432H51.9528C51.9276 20.2432 51.9025 20.2482 51.8792 20.2578C51.8558 20.2674 51.8346 20.2814 51.8167 20.2992C51.7988 20.3169 51.7847 20.338 51.775 20.3611C51.7653 20.3843 51.7603 20.4092 51.7603 20.4342V21.4603C51.7603 21.4854 51.7653 21.5102 51.775 21.5334C51.7847 21.5566 51.7988 21.5776 51.8167 21.5954C51.8346 21.6131 51.8558 21.6272 51.8792 21.6368C51.9025 21.6464 51.9276 21.6513 51.9528 21.6513H64.0243C64.0495 21.6513 64.0746 21.6464 64.0979 21.6368C64.1213 21.6272 64.1425 21.6131 64.1604 21.5954C64.1783 21.5776 64.1924 21.5566 64.2021 21.5334C64.2118 21.5102 64.2168 21.4854 64.2168 21.4603V20.4342ZM64.213 23.1867C64.213 23.1271 64.1891 23.07 64.1467 23.0278C64.1042 22.9857 64.0466 22.962 63.9865 22.962H51.983C51.9533 22.962 51.9239 22.9678 51.8964 22.9791C51.8689 22.9904 51.8439 23.007 51.8229 23.0278C51.8019 23.0487 51.7852 23.0735 51.7738 23.1007C51.7624 23.128 51.7566 23.1572 51.7566 23.1867V24.2353C51.7566 24.2648 51.7624 24.294 51.7738 24.3213C51.7852 24.3485 51.8019 24.3733 51.8229 24.3942C51.8439 24.415 51.8689 24.4316 51.8964 24.4429C51.9239 24.4542 51.9533 24.46 51.983 24.46H63.9865C64.0466 24.46 64.1042 24.4363 64.1467 24.3942C64.1891 24.352 64.213 24.2949 64.213 24.2353V23.1867Z" fill="#084A8E"/>
</svg>
