<svg width="109" height="127" viewBox="0 0 109 127" fill="none" xmlns="http://www.w3.org/2000/svg">
<path fill-rule="evenodd" clip-rule="evenodd" d="M57.0197 80.4013C63.3051 80.4013 67.3857 79.2645 71.9135 77.229C76.4413 75.1935 91.9111 70.1613 99.0801 67.8997C101.344 66.3919 105.051 61.9911 101.768 56.45L100.25 54.764L98.5088 53.6845L95.3873 52.7251L93.1062 52.3053L91.0653 51.8855L89.8647 51.4057L89.5046 51.0459L91.0653 50.4462L95.3873 49.1269L99.7093 47.6276C100.313 47.3141 101.637 46.3494 102.11 44.9995L109 42.0036L102.471 39.3526C102.179 37.531 100.86 33.7567 97.9196 33.2321C97.0444 32.7949 94.8651 31.9118 93.1497 31.8769C92.425 31.8345 90.6813 31.5483 89.5046 30.7423L89.8647 30.1998L91.6774 29.6129L97.9196 27.479C99.8743 26.721 103.653 24.0536 103.127 19.4472C102.471 13.6891 99.7369 12.7859 96.7985 12.2214C96.3404 12.1333 95.0833 12.0269 93.2393 11.8709C83.2561 11.0259 56.0684 8.72485 45.291 0H20.415C21.133 1.09342 21.7515 2.27292 22.3948 3.49974C25.926 10.2338 30.2048 18.3935 55.7822 21.5675L64.1292 22.8516C64.2332 22.9127 64.3401 22.9751 64.4495 23.0389C67.5472 24.846 72.6079 27.7983 66.6527 34.4394C65.9108 34.9655 63.3307 35.7898 58.9459 34.8783C58.2838 34.7406 57.1799 34.5854 55.7195 34.38C45.5391 32.948 18.0318 29.079 2.04474 11.7515C1.24443 10.8611 0.556704 10.0621 0 9.38037C0.657542 10.1975 1.33995 10.9876 2.04474 11.7515C6.52418 16.7349 14.5306 24.5804 22.8301 30.7423C27.3951 34.1316 37.2794 39.3526 58.9459 42.0036C61.7353 42.0672 69.1336 43.3218 69.1336 47.6276L69.1402 47.6672C69.2747 48.4718 69.4525 49.536 69.1336 52.7251C68.8095 55.9667 63.7314 55.8149 61.2328 55.6241C46.8223 55.0185 16.3919 51.4466 9.95422 42.0036C11.7744 45.3939 19.4958 53.4092 35.82 58.3476C43.2057 59.8311 58.5347 62.6257 60.7655 61.9366C62.9719 62.128 67.7344 63.1999 69.1336 65.9562C71.1254 69.8799 65.4582 73.7083 62.9559 74.7132C60.4536 75.7182 42.4136 73.5136 37.4994 72.581C28.0832 70.794 25.0828 70.2263 22.3699 69.0148C20.8186 68.322 19.3612 67.4186 16.8518 65.9562C9.95422 61.9366 24.1611 75.0997 35.8201 77.229C43.625 78.6545 47.4716 79.1552 53.323 79.917C53.9311 79.9961 54.5608 80.0781 55.2189 80.1642L57.0197 80.4013ZM93.8122 37.4401C94.6292 37.4401 95.2915 36.7778 95.2915 35.9608C95.2915 35.1439 94.6292 34.4816 93.8122 34.4816C92.9952 34.4816 92.3329 35.1439 92.3329 35.9608C92.3329 36.7778 92.9952 37.4401 93.8122 37.4401Z" fill="#084A8E"/>
<path d="M81.1724 92.2148C85.5036 92.2659 89.8369 92.2765 94.1724 92.2467C95.3275 92.2339 96.1763 92.5913 95.9721 93.8996C95.9277 94.1962 95.7783 94.4669 95.551 94.6625C95.3238 94.8582 95.0338 94.9656 94.734 94.9654H79.4939C79.3889 94.9654 79.2855 94.9923 79.1939 95.0437C79.1022 95.0952 79.0254 95.1693 78.9706 95.259C77.8006 97.1991 76.3328 98.8754 74.5671 100.288C74.4758 100.362 74.3668 100.41 74.2514 100.428C74.1359 100.446 74.018 100.433 73.9098 100.39C73.1056 100.084 72.7461 99.5008 72.8312 98.6414C72.8478 98.4319 72.9413 98.2381 73.0929 98.0989C76.1434 95.2483 78.2495 91.8106 79.411 87.7857C79.4854 87.5307 79.6502 87.3116 79.8746 87.1694C80.099 87.0273 80.3676 86.9718 80.6299 87.0135C83.138 87.4092 81.3256 90.5491 80.9426 91.9085C80.9325 91.9448 80.9308 91.983 80.9376 92.02C80.9444 92.057 80.9596 92.0918 80.9819 92.1215C81.0042 92.1513 81.0331 92.1752 81.0661 92.1914C81.0992 92.2076 81.1356 92.2156 81.1724 92.2148Z" fill="#084A8E"/>
<path d="M65.02 96.2801V102.432C65.0199 102.518 65.0531 102.601 65.1126 102.663C65.1721 102.724 65.2533 102.761 65.3391 102.764C66.9537 102.802 69.7171 102.42 70.8849 103.339C72.857 104.883 70.9934 121.246 70.8084 122.101C70.0617 125.522 67.5025 125.969 64.2924 125.899C62.7033 125.86 62.4353 122.886 65.205 123.282C67.2281 123.569 68.2045 122.433 68.396 120.468C68.881 115.558 69.0959 110.644 69.0406 105.725C69.0389 105.622 68.9965 105.523 68.9224 105.45C68.8484 105.377 68.7487 105.336 68.6449 105.336H65.2688C65.1773 105.336 65.0892 105.371 65.0227 105.434C64.9562 105.497 64.9164 105.583 64.9115 105.674C64.5285 112.482 63.1415 119.061 60.7504 125.414C60.4058 126.339 59.506 126.888 58.6189 126.467C58.4093 126.365 58.2448 126.19 58.1576 125.974C58.0703 125.758 58.0664 125.517 58.1466 125.299C61.5716 115.977 62.9756 106.336 62.3587 96.3758C62.3536 96.2769 62.3143 96.1831 62.2478 96.1107C62.1813 96.0383 62.0917 95.9921 61.9949 95.9802C60.6866 95.8078 57.7446 96.529 58.1402 94.1996C58.1867 93.9262 58.3279 93.6779 58.5391 93.4982C58.7503 93.3185 59.0181 93.2189 59.2954 93.2168L63.7436 93.204C63.8282 93.204 63.9094 93.1711 63.9692 93.1124C64.029 93.0538 64.0627 92.9742 64.0627 92.8913V88.2772C64.063 88.1119 64.0987 87.9487 64.1672 87.7983C64.2357 87.6479 64.3355 87.5139 64.4599 87.4051C64.5844 87.2964 64.7306 87.2155 64.8888 87.1678C65.047 87.12 65.2135 87.1066 65.3773 87.1284C67.5536 87.422 66.7431 91.2639 66.8324 92.8849C66.8373 92.973 66.8758 93.0558 66.9399 93.1163C67.004 93.1769 67.0889 93.2105 67.177 93.2104L71.4274 93.2168C71.6987 93.217 71.9634 93.3003 72.1859 93.4554C72.4084 93.6106 72.578 93.8302 72.6719 94.0847C73.6738 96.8098 66.6091 95.9355 65.3391 95.961C65.2544 95.961 65.1733 95.9946 65.1134 96.0545C65.0536 96.1143 65.02 96.1955 65.02 96.2801Z" fill="#084A8E"/>
<path d="M29.7598 94.5825V92.8083C29.7598 92.7034 29.7174 92.6027 29.642 92.5285C29.5666 92.4543 29.4644 92.4126 29.3577 92.4126H17.9277C17.7801 92.4125 17.6348 92.3763 17.5044 92.3072C17.3739 92.2381 17.2624 92.1382 17.1793 92.0162C17.0963 91.8942 17.0443 91.7537 17.028 91.607C17.0116 91.4604 17.0312 91.3119 17.0853 91.1745L17.3916 90.3768C17.4327 90.2718 17.5052 90.1815 17.5996 90.1178C17.6941 90.0541 17.8062 90.0198 17.9213 90.0194H29.3067C29.3858 90.0195 29.4638 90.0012 29.5346 89.966C29.6054 89.9308 29.6671 89.8796 29.7147 89.8165C29.7624 89.7534 29.7947 89.68 29.8092 89.6023C29.8236 89.5245 29.8198 89.4445 29.7981 89.3685C29.1599 87.1029 32.2679 85.9924 32.3636 89.3621C32.3686 89.5354 32.4405 89.7 32.5642 89.8214C32.688 89.9428 32.854 90.0115 33.0273 90.013C35.4312 90.0258 37.9563 90.0258 40.6027 90.013C43.6532 90.0003 44.4701 90.6257 44.2149 93.7401C44.2027 93.8892 44.2204 94.0392 44.2671 94.1814C44.3137 94.3235 44.3882 94.4549 44.4863 94.5679C44.5844 94.6808 44.704 94.773 44.8383 94.8391C44.9725 94.9052 45.1185 94.9438 45.2679 94.9526C46.4932 95.0228 49.1481 94.4102 49.7863 95.8461C50.2415 96.8672 49.9118 97.3756 48.7971 97.3714L44.7637 97.3522C44.6569 97.3517 44.5536 97.3911 44.4736 97.4629C44.3935 97.5347 44.3423 97.6339 44.3297 97.7415C44.0234 100.39 44.8658 102.33 41.0813 102.305C38.286 102.283 35.4886 102.298 32.6891 102.349C32.6056 102.351 32.5261 102.385 32.4676 102.443C32.4092 102.502 32.3764 102.58 32.3764 102.662L32.37 104.506C32.37 104.596 32.4056 104.682 32.4691 104.746C32.5325 104.809 32.6185 104.845 32.7082 104.845L45.2806 104.864C45.5594 104.864 45.827 104.974 46.0253 105.17C46.2236 105.365 46.3367 105.632 46.34 105.91C46.3571 106.77 45.8827 107.191 44.9169 107.174C40.8452 107.097 36.7714 107.083 32.6955 107.129C32.6109 107.129 32.5297 107.163 32.4698 107.223C32.41 107.283 32.3764 107.364 32.3764 107.448V109.28C32.3764 109.366 32.4107 109.449 32.4717 109.51C32.5328 109.571 32.6155 109.606 32.7019 109.606C37.633 109.652 42.5534 109.665 47.4633 109.644C48.4418 109.64 49.1757 109.757 49.665 109.995C49.7861 110.055 49.883 110.154 49.9399 110.276C49.9968 110.398 50.0101 110.535 49.9777 110.665L49.7416 111.609C49.7128 111.73 49.6442 111.837 49.5469 111.913C49.4496 111.99 49.3293 112.031 49.2055 112.031C37.1947 112.039 25.1818 112.012 13.1668 111.948C12.4818 111.943 12.0946 111.539 12.0053 110.735C11.991 110.597 12.0058 110.458 12.0486 110.327C12.0915 110.195 12.1615 110.074 12.2541 109.971C12.3468 109.868 12.46 109.786 12.5864 109.73C12.7128 109.673 12.8497 109.644 12.9881 109.644H29.3769C29.4305 109.644 29.4836 109.633 29.5329 109.612C29.5822 109.591 29.6267 109.56 29.6637 109.521C29.7007 109.482 29.7294 109.437 29.7481 109.386C29.7668 109.336 29.7752 109.283 29.7726 109.229L29.7087 107.512C29.7054 107.399 29.6576 107.292 29.5753 107.214C29.4931 107.135 29.383 107.091 29.2684 107.091H16.7088C16.5783 107.091 16.4492 107.065 16.3287 107.015C16.2083 106.965 16.099 106.892 16.007 106.799C15.9151 106.707 15.8424 106.597 15.793 106.476C15.7437 106.355 15.7187 106.226 15.7196 106.095C15.7259 105.24 16.3578 104.838 17.181 104.845C21.2527 104.891 25.3244 104.874 29.396 104.794C29.4813 104.792 29.5624 104.756 29.6221 104.694C29.6818 104.632 29.7152 104.549 29.7151 104.462V102.675C29.7151 102.59 29.681 102.508 29.6201 102.447C29.5593 102.386 29.4765 102.351 29.3896 102.349C25.9774 102.298 22.578 102.283 19.1913 102.305C18.2085 102.311 17.5895 102.464 17.1108 101.424C16.6513 100.424 16.9725 99.922 18.0745 99.9178L29.3514 99.905C29.4013 99.905 29.4508 99.8951 29.4969 99.8758C29.543 99.8564 29.5848 99.8281 29.6199 99.7925C29.6549 99.7568 29.6825 99.7146 29.7011 99.6682C29.7196 99.6217 29.7287 99.5721 29.7279 99.5221L29.7151 97.7543C29.7151 97.6511 29.6748 97.552 29.603 97.479C29.5312 97.406 29.4338 97.365 29.3322 97.365C24.4479 97.3608 19.5785 97.3565 14.724 97.3522C13.5752 97.3459 12.669 97.6841 12.2223 96.2865C12.1739 96.1359 12.1619 95.9761 12.1872 95.82C12.2124 95.6639 12.2743 95.5161 12.3676 95.3885C12.461 95.2609 12.5832 95.1572 12.7244 95.0859C12.8655 95.0146 13.0215 94.9776 13.1796 94.9782L29.3896 94.9526C29.4878 94.9526 29.582 94.9136 29.6514 94.8442C29.7208 94.7748 29.7598 94.6807 29.7598 94.5825ZM41.7276 92.7144C41.7277 92.6758 41.7202 92.6376 41.7055 92.602C41.6908 92.5663 41.6692 92.5339 41.642 92.5066C41.6148 92.4793 41.5825 92.4577 41.5469 92.4428C41.5113 92.428 41.4731 92.4204 41.4346 92.4203L32.6786 92.405C32.64 92.4049 32.6018 92.4124 32.5662 92.4271C32.5305 92.4418 32.4981 92.4634 32.4708 92.4906C32.4435 92.5178 32.4218 92.5501 32.407 92.5857C32.3922 92.6213 32.3846 92.6595 32.3845 92.698L32.381 94.6509C32.381 94.6895 32.3885 94.7276 32.4032 94.7633C32.4179 94.7989 32.4395 94.8313 32.4667 94.8586C32.4939 94.8859 32.5262 94.9076 32.5618 94.9224C32.5974 94.9373 32.6356 94.9449 32.6741 94.945L41.4301 94.9603C41.4687 94.9604 41.5068 94.9528 41.5425 94.9381C41.5781 94.9235 41.6105 94.9019 41.6378 94.8747C41.6651 94.8475 41.6868 94.8151 41.7016 94.7795C41.7165 94.744 41.7241 94.7058 41.7242 94.6672L41.7276 92.7144ZM41.734 97.6668C41.7341 97.6274 41.7264 97.5884 41.7114 97.552C41.6964 97.5155 41.6743 97.4824 41.6465 97.4545C41.6187 97.4266 41.5857 97.4045 41.5493 97.3893C41.513 97.3742 41.474 97.3664 41.4346 97.3663L32.6275 97.351C32.548 97.3508 32.4716 97.3823 32.4153 97.4384C32.3589 97.4946 32.3272 97.5708 32.3271 97.6503L32.3236 99.6032C32.3235 99.6426 32.3312 99.6816 32.3462 99.7181C32.3612 99.7545 32.3833 99.7876 32.4111 99.8155C32.4389 99.8434 32.4719 99.8656 32.5083 99.8807C32.5447 99.8958 32.5837 99.9037 32.623 99.9037L41.4301 99.9191C41.5096 99.9192 41.586 99.8877 41.6423 99.8316C41.6987 99.7754 41.7304 99.6992 41.7306 99.6197L41.734 97.6668Z" fill="#084A8E"/>
<path d="M83.9421 105.228L82.5828 105.815C82.4841 105.856 82.4 105.926 82.3409 106.014C82.2819 106.103 82.2506 106.207 82.2509 106.312V125.133C82.2514 125.309 82.2116 125.482 82.1348 125.64C82.0579 125.799 81.946 125.937 81.8075 126.045C81.669 126.154 81.5076 126.229 81.3356 126.265C81.1636 126.302 80.9856 126.299 80.815 126.256C79.1493 125.841 79.3727 124.852 79.3791 123.454C79.4046 118.225 79.3876 112.999 79.328 107.774C79.3275 107.733 79.3172 107.693 79.2979 107.657C79.2786 107.62 79.2508 107.59 79.217 107.566C79.1832 107.543 79.1444 107.529 79.1037 107.524C79.063 107.519 79.0218 107.523 78.9834 107.538L74.816 109.089C74.5154 109.199 74.1843 109.191 73.8902 109.067C73.5961 108.942 73.3611 108.71 73.2333 108.419C72.8546 107.559 73.095 106.976 73.9544 106.67C80.1109 104.492 85.7163 101.488 90.7708 97.6586C90.8972 97.5621 91.0451 97.4975 91.2017 97.4703C91.3584 97.4431 91.5194 97.454 91.6709 97.5023C91.8225 97.5505 91.9602 97.6345 92.0723 97.7473C92.1845 97.86 92.2678 97.9982 92.3152 98.15C92.6343 99.1754 92.3918 99.9603 91.5877 100.505C90.0518 101.547 88.4861 102.549 86.8906 103.511C86.8022 103.564 86.7333 103.644 86.6942 103.74C86.6551 103.835 86.6479 103.941 86.6736 104.041L88.0074 109.127C88.0222 109.182 88.0486 109.234 88.0849 109.278C88.1211 109.323 88.1665 109.359 88.2179 109.384C88.2692 109.409 88.3254 109.423 88.3827 109.425C88.44 109.427 88.497 109.417 88.5499 109.395C91.0729 108.327 93.4597 107.008 95.7104 105.438C95.8198 105.361 95.9465 105.313 96.0791 105.297C96.2118 105.281 96.3463 105.298 96.4707 105.347C96.5952 105.396 96.7056 105.474 96.7923 105.576C96.879 105.678 96.9393 105.799 96.9677 105.93C97.4974 108.348 91.3707 110.978 89.5582 111.775C89.5204 111.792 89.4862 111.816 89.4579 111.846C89.4295 111.876 89.4075 111.911 89.3932 111.95C89.3789 111.989 89.3726 112.03 89.3746 112.071C89.3766 112.113 89.387 112.153 89.4051 112.19C91.0006 115.543 93.1619 118.445 95.8891 120.895C96.6975 121.627 96.8507 122.427 96.3486 123.295C96.2769 123.418 96.1786 123.524 96.0608 123.605C95.943 123.686 95.8086 123.74 95.6675 123.763C95.5264 123.785 95.382 123.776 95.2449 123.736C95.1077 123.696 94.9811 123.626 94.8744 123.531C89.454 118.664 85.9716 112.645 84.4272 105.476C84.4164 105.425 84.3944 105.377 84.3627 105.336C84.331 105.294 84.2904 105.26 84.2439 105.236C84.1975 105.213 84.1463 105.199 84.0941 105.198C84.0418 105.196 83.9899 105.206 83.9421 105.228Z" fill="#084A8E"/>
<path d="M44.1256 123.537C44.1256 124.167 43.8754 124.771 43.4302 125.216C42.985 125.661 42.3811 125.911 41.7515 125.911H20.321C19.6913 125.911 19.0875 125.661 18.6423 125.216C18.197 124.771 17.9469 124.167 17.9469 123.537V116.645C17.9469 116.015 18.197 115.411 18.6423 114.966C19.0875 114.521 19.6913 114.271 20.321 114.271H41.7515C42.3811 114.271 42.985 114.521 43.4302 114.966C43.8754 115.411 44.1256 116.015 44.1256 116.645V123.537ZM41.5728 116.824C41.5728 116.781 41.5644 116.738 41.548 116.699C41.5317 116.659 41.5077 116.624 41.4775 116.593C41.4472 116.563 41.4114 116.539 41.3719 116.523C41.3324 116.506 41.2901 116.498 41.2473 116.498H20.8379C20.7952 116.498 20.7529 116.506 20.7134 116.523C20.6739 116.539 20.638 116.563 20.6078 116.593C20.5775 116.624 20.5536 116.659 20.5372 116.699C20.5209 116.738 20.5124 116.781 20.5124 116.824V118.572C20.5124 118.615 20.5209 118.657 20.5372 118.697C20.5536 118.736 20.5775 118.772 20.6078 118.802C20.638 118.833 20.6739 118.857 20.7134 118.873C20.7529 118.889 20.7952 118.898 20.8379 118.898H41.2473C41.2901 118.898 41.3324 118.889 41.3719 118.873C41.4114 118.857 41.4472 118.833 41.4775 118.802C41.5077 118.772 41.5317 118.736 41.548 118.697C41.5644 118.657 41.5728 118.615 41.5728 118.572V116.824ZM41.5664 121.514C41.5664 121.413 41.5261 121.315 41.4543 121.243C41.3824 121.172 41.2851 121.131 41.1835 121.131H20.889C20.8387 121.131 20.7889 121.141 20.7424 121.16C20.696 121.18 20.6538 121.208 20.6182 121.243C20.5827 121.279 20.5544 121.321 20.5352 121.368C20.516 121.414 20.5061 121.464 20.5061 121.514V123.301C20.5061 123.351 20.516 123.401 20.5352 123.448C20.5544 123.494 20.5827 123.536 20.6182 123.572C20.6538 123.607 20.696 123.636 20.7424 123.655C20.7889 123.674 20.8387 123.684 20.889 123.684H41.1835C41.2851 123.684 41.3824 123.644 41.4543 123.572C41.5261 123.5 41.5664 123.403 41.5664 123.301V121.514Z" fill="#084A8E"/>
</svg>
