<svg width="109" height="81" viewBox="0 0 109 81" fill="none" xmlns="http://www.w3.org/2000/svg">
<path fill-rule="evenodd" clip-rule="evenodd" d="M57.0197 80.4013C63.3051 80.4013 67.3857 79.2645 71.9135 77.229C76.4413 75.1935 91.9111 70.1613 99.0801 67.8997C101.344 66.3919 105.051 61.9911 101.768 56.45L100.25 54.764L98.5088 53.6845L95.3873 52.7251L93.1062 52.3053L91.0653 51.8855L89.8647 51.4057L89.5046 51.0459L91.0653 50.4462L95.3873 49.1269L99.7093 47.6276C100.313 47.3141 101.637 46.3494 102.11 44.9995L109 42.0036L102.471 39.3526C102.179 37.531 100.86 33.7567 97.9196 33.2321C97.0444 32.7949 94.8651 31.9118 93.1497 31.8769C92.425 31.8345 90.6813 31.5483 89.5046 30.7423L89.8647 30.1998L91.6774 29.6129L97.9196 27.479C99.8743 26.721 103.653 24.0536 103.127 19.4472C102.471 13.6891 99.7369 12.7859 96.7985 12.2214C96.3404 12.1333 95.0833 12.0269 93.2393 11.8709C83.2561 11.0259 56.0684 8.72485 45.291 0H20.415C21.133 1.09342 21.7515 2.27292 22.3948 3.49974C25.926 10.2338 30.2048 18.3935 55.7822 21.5675L64.1292 22.8516C64.2332 22.9127 64.3401 22.9751 64.4495 23.0389C67.5472 24.846 72.6079 27.7983 66.6527 34.4394C65.9108 34.9655 63.3307 35.7898 58.9459 34.8783C58.2838 34.7406 57.1799 34.5854 55.7195 34.38C45.5391 32.948 18.0318 29.079 2.04474 11.7515C1.24443 10.8611 0.556704 10.0621 0 9.38037C0.657542 10.1975 1.33995 10.9876 2.04474 11.7515C6.52418 16.7349 14.5306 24.5804 22.8301 30.7423C27.3951 34.1316 37.2794 39.3526 58.9459 42.0036C61.7353 42.0672 69.1336 43.3218 69.1336 47.6276L69.1402 47.6672C69.2747 48.4718 69.4525 49.536 69.1336 52.7251C68.8095 55.9667 63.7314 55.8149 61.2328 55.6241C46.8223 55.0185 16.3919 51.4466 9.95422 42.0036C11.7744 45.3939 19.4958 53.4092 35.82 58.3476C43.2057 59.8311 58.5347 62.6257 60.7655 61.9366C62.9719 62.128 67.7344 63.1999 69.1336 65.9562C71.1254 69.8799 65.4582 73.7083 62.9559 74.7132C60.4536 75.7182 42.4136 73.5136 37.4994 72.581C28.0832 70.794 25.0828 70.2263 22.3699 69.0148C20.8186 68.322 19.3612 67.4186 16.8518 65.9562C9.95422 61.9366 24.1611 75.0997 35.8201 77.229C43.625 78.6545 47.4716 79.1552 53.323 79.917C53.9311 79.9961 54.5608 80.0781 55.2189 80.1642L57.0197 80.4013ZM93.8122 37.4401C94.6292 37.4401 95.2915 36.7778 95.2915 35.9608C95.2915 35.1439 94.6292 34.4816 93.8122 34.4816C92.9952 34.4816 92.3329 35.1439 92.3329 35.9608C92.3329 36.7778 92.9952 37.4401 93.8122 37.4401Z" fill="#084A8E"/>
</svg>
