<?xml version="1.0" encoding="UTF-8"?>
<svg id="_圖層_2" data-name="圖層 2" xmlns="http://www.w3.org/2000/svg" viewBox="0 0 99.79 99.78">
  <defs>
    <style>
      .cls-1 {
        fill: #fff;
      }

      .cls-2 {
        fill: #5eb4e7;
      }

      .cls-3 {
        fill: #282d33;
      }
    </style>
  </defs>
  <g id="Layer_4" data-name="Layer 4">
    <g>
      <circle class="cls-2" cx="49.89" cy="49.89" r="49.89" transform="translate(-19.78 38.74) rotate(-35.9)"/>
      <g>
        <g>
          <g>
            <polygon class="cls-1" points="49.89 87.48 8.71 50.12 49.89 50.12 91.08 50.12 49.89 87.48"/>
            <path class="cls-3" d="m49.89,89.48c-.48,0-.96-.17-1.34-.52L7.37,51.6c-.61-.56-.82-1.43-.52-2.2.3-.77,1.04-1.28,1.87-1.28h82.37c.83,0,1.57.51,1.87,1.28.3.77.09,1.65-.52,2.2l-41.18,37.36c-.38.35-.86.52-1.34.52ZM13.89,52.12l36,32.66,36-32.66H13.89Z"/>
          </g>
          <g>
            <polygon class="cls-1" points="49.89 87.48 31.74 50.12 49.89 50.12 68.05 50.12 49.89 87.48"/>
            <path class="cls-3" d="m49.89,89.48h0c-.77,0-1.46-.44-1.8-1.13l-18.15-37.36c-.3-.62-.26-1.35.1-1.94.37-.58,1.01-.94,1.7-.94h36.31c.69,0,1.33.35,1.7.94s.4,1.32.1,1.94l-18.16,37.36c-.33.69-1.03,1.13-1.8,1.13Zm-14.96-37.36l14.96,30.79,14.96-30.79h-29.92Z"/>
          </g>
        </g>
        <g>
          <g>
            <polygon class="cls-1" points="8.71 50.23 49.89 50.23 91.08 50.23 79.75 35.62 20.04 35.62 8.71 50.23"/>
            <path class="cls-3" d="m91.08,52.23H8.71c-.76,0-1.46-.43-1.8-1.12-.34-.69-.25-1.5.22-2.11l11.33-14.61c.38-.49.96-.77,1.58-.77h59.71c.62,0,1.2.29,1.58.77l11.33,14.61c.47.6.55,1.42.22,2.11-.34.69-1.03,1.12-1.8,1.12Zm-78.28-4h74.2l-8.23-10.61H21.02l-8.23,10.61Z"/>
          </g>
          <g>
            <polygon class="cls-1" points="49.89 35.48 31.74 50.23 49.89 50.23 68.05 50.23 49.89 35.48"/>
            <path class="cls-3" d="m68.05,52.23H31.74l-1.26-3.55,18.15-14.75h2.52l18.16,14.75-1.26,3.55Zm-30.68-4h25.05l-12.52-10.18-12.52,10.18Z"/>
          </g>
          <g>
            <polygon class="cls-1" points="31.59 50.23 20.07 35.62 20.04 35.62 8.71 50.23 31.59 50.23"/>
            <path class="cls-3" d="m31.59,52.23H8.71c-.76,0-1.46-.43-1.8-1.12-.34-.69-.25-1.5.22-2.11l11.33-14.61c.75-.97,2.42-.98,3.18-.01l11.52,14.61c.47.6.56,1.42.23,2.11-.33.69-1.03,1.13-1.8,1.13Zm-18.8-4h14.67l-7.4-9.38-7.28,9.38Z"/>
          </g>
          <g>
            <polygon class="cls-1" points="68.2 50.23 79.72 35.62 79.75 35.62 91.08 50.23 68.2 50.23"/>
            <path class="cls-3" d="m91.08,52.23h-22.88c-.77,0-1.46-.44-1.8-1.13-.33-.69-.25-1.51.23-2.11l11.52-14.61c.76-.97,2.43-.96,3.18.01l11.33,14.61c.47.6.55,1.42.22,2.11-.34.69-1.03,1.12-1.8,1.12Zm-18.75-4h14.67l-7.27-9.38-7.4,9.38Z"/>
          </g>
        </g>
      </g>
      <g>
        <rect class="cls-1" x="49.71" y="11.61" width="17.09" height="4" transform="translate(7.44 45.18) rotate(-45)"/>
        <rect class="cls-1" x="56.26" y="5.06" width="4" height="17.09" transform="translate(7.44 45.18) rotate(-45)"/>
      </g>
      <g>
        <rect class="cls-1" x="30.78" y="19.38" width="10.65" height="4" transform="translate(-4.54 31.79) rotate(-45)"/>
        <rect class="cls-1" x="34.1" y="16.05" width="4" height="10.65" transform="translate(-4.54 31.79) rotate(-45)"/>
      </g>
    </g>
  </g>
</svg>