<svg width="32" height="32" viewBox="0 0 32 32" fill="none" xmlns="http://www.w3.org/2000/svg">
<rect width="2.68121" height="2.68121" fill="#D9D9D9"/>
<rect y="7.1499" width="2.68121" height="2.68121" fill="#D9D9D9"/>
<rect y="14.2998" width="2.68121" height="2.68121" fill="#D9D9D9"/>
<rect y="21.4497" width="2.68121" height="2.68121" fill="#D9D9D9"/>
<rect y="28.5996" width="2.68121" height="2.68121" fill="#D9D9D9"/>
<rect x="7.14989" width="2.68121" height="2.68121" fill="#D9D9D9"/>
<rect x="7.14989" y="7.1499" width="2.68121" height="2.68121" fill="#D9D9D9"/>
<rect x="7.14989" y="14.2998" width="2.68121" height="2.68121" fill="#D9D9D9"/>
<rect x="7.14989" y="21.4497" width="2.68121" height="2.68121" fill="#D9D9D9"/>
<rect x="7.14989" y="28.5996" width="2.68121" height="2.68121" fill="#D9D9D9"/>
<rect x="14.2998" width="2.68121" height="2.68121" fill="#D9D9D9"/>
<rect x="14.2998" y="7.1499" width="2.68121" height="2.68121" fill="#D9D9D9"/>
<rect x="14.2998" y="14.2998" width="2.68121" height="2.68121" fill="#D9D9D9"/>
<rect x="14.2998" y="21.4497" width="2.68121" height="2.68121" fill="#D9D9D9"/>
<rect x="14.2998" y="28.5996" width="2.68121" height="2.68121" fill="#D9D9D9"/>
<rect x="21.4497" width="2.68121" height="2.68121" fill="#D9D9D9"/>
<rect x="21.4497" y="7.1499" width="2.68121" height="2.68121" fill="#D9D9D9"/>
<rect x="21.4497" y="14.2998" width="2.68121" height="2.68121" fill="#D9D9D9"/>
<rect x="21.4497" y="21.4497" width="2.68121" height="2.68121" fill="#D9D9D9"/>
<rect x="21.4497" y="28.5996" width="2.68121" height="2.68121" fill="#D9D9D9"/>
<rect x="28.5995" width="2.68121" height="2.68121" fill="#D9D9D9"/>
<rect x="28.5995" y="7.1499" width="2.68121" height="2.68121" fill="#D9D9D9"/>
<rect x="28.5995" y="14.2998" width="2.68121" height="2.68121" fill="#D9D9D9"/>
<rect x="28.5995" y="21.4497" width="2.68121" height="2.68121" fill="#D9D9D9"/>
<rect x="28.5995" y="28.5996" width="2.68121" height="2.68121" fill="#D9D9D9"/>
</svg>
