<svg width="116" height="86" viewBox="0 0 116 86" fill="none" xmlns="http://www.w3.org/2000/svg">
<path fill-rule="evenodd" clip-rule="evenodd" d="M60.6815 85.5646C67.3706 85.5646 71.7132 84.3549 76.5318 82.1887C81.3503 80.0225 97.8137 74.6671 105.443 72.2602C107.852 70.6556 111.797 65.9722 108.304 60.0752L106.688 58.281L104.835 57.1322L101.513 56.1111L99.0855 55.6643L96.9135 55.2176L95.6358 54.707L95.2525 54.3241L96.9135 53.6859L101.513 52.2818L106.113 50.6863C106.755 50.3526 108.165 49.326 108.668 47.8893L116 44.701L109.051 41.8798C108.741 39.9413 107.338 35.9246 104.208 35.3663C103.277 34.901 100.957 33.9612 99.1318 33.924C98.3605 33.8789 96.5049 33.5744 95.2525 32.7166L95.6358 32.1392L97.5649 31.5146L104.208 29.2437C106.288 28.4371 110.309 25.5983 109.75 20.6961C109.051 14.5682 106.142 13.607 103.015 13.0062C102.527 12.9125 101.19 12.7993 99.2271 12.6332C88.6028 11.734 59.6691 9.28516 48.1996 0H21.7261C22.4901 1.16364 23.1484 2.41889 23.833 3.7245C27.591 10.891 32.1445 19.5747 59.3646 22.9526L68.2476 24.3192C68.3582 24.3842 68.472 24.4506 68.5884 24.5185C71.8851 26.4417 77.2708 29.5835 70.9332 36.6511C70.1436 37.211 67.3978 38.0883 62.7314 37.1182C62.0268 36.9717 60.852 36.8064 59.2978 36.5878C48.4637 35.064 19.1898 30.9465 2.17606 12.5061C1.32435 11.5586 0.592456 10.7083 0 9.98278C0.699771 10.8524 1.426 11.6932 2.17606 12.5061C6.94316 17.8096 15.4637 26.1589 24.2962 32.7166C29.1545 36.3236 39.6735 41.8798 62.7314 44.701C65.6999 44.7688 73.5734 46.1039 73.5734 50.6863L73.5804 50.7284C73.7235 51.5846 73.9127 52.7172 73.5734 56.1111C73.2284 59.5609 67.8242 59.3994 65.1652 59.1963C49.8293 58.5518 17.4446 54.7505 10.5935 44.701C12.5306 48.3091 20.7479 56.8392 38.1204 62.0947C45.9804 63.6734 62.2939 66.6475 64.6679 65.9142C67.0159 66.1179 72.0843 67.2586 73.5734 70.1919C75.6931 74.3677 69.662 78.4419 66.999 79.5113C64.3359 80.5808 45.1374 78.2347 39.9076 77.2421C29.8867 75.3404 26.6936 74.7363 23.8065 73.447C22.1555 72.7096 20.6046 71.7482 17.934 70.1919C10.5935 65.9142 25.7128 79.9226 38.1204 82.1887C46.4267 83.7057 50.5203 84.2386 56.7476 85.0493C57.3933 85.1333 58.062 85.2204 58.7606 85.3118L60.6815 85.5646ZM99.8368 39.8445C100.706 39.8445 101.411 39.1396 101.411 38.2702C101.411 37.4007 100.706 36.6959 99.8368 36.6959C98.9674 36.6959 98.2625 37.4007 98.2625 38.2702C98.2625 39.1396 98.9674 39.8445 99.8368 39.8445Z" fill="#084A8E"/>
</svg>
