<?xml version="1.0" encoding="UTF-8"?>
<svg id="_圖層_2" data-name="圖層 2" xmlns="http://www.w3.org/2000/svg" viewBox="0 0 100.28 102.54">
  <defs>
    <style>
      .cls-1 {
        fill: #fff;
      }

      .cls-2 {
        fill: #5eb4e7;
      }

      .cls-3 {
        fill: #f8c44f;
      }

      .cls-4 {
        fill: #282d33;
      }
    </style>
  </defs>
  <g id="Layer_4" data-name="Layer 4">
    <g>
      <path class="cls-3" d="m36.09,8.8c-12.9-5.68-28.02.19-33.69,13.09-5.68,12.89.19,28.01,13.08,33.69,12.9,5.68,28.02-.19,33.7-13.08,5.68-12.9-.19-28.01-13.09-33.7Z"/>
      <g>
        <g>
          <g>
            <path class="cls-1" d="m52.18,86.32c-5.49,0-10.84-1.13-15.89-3.35-19.95-8.79-29.03-32.17-20.24-52.12,6.31-14.34,20.54-23.6,36.24-23.6,5.49,0,10.83,1.13,15.89,3.35,9.65,4.25,17.07,12.02,20.9,21.88,3.83,9.86,3.6,20.6-.66,30.25-6.32,14.33-20.54,23.59-36.24,23.59h0Z"/>
            <path class="cls-4" d="m52.29,9.24c5.05,0,10.17,1.02,15.08,3.18,18.94,8.34,27.57,30.55,19.22,49.49-6.18,14.04-19.97,22.4-34.41,22.4-5.05,0-10.17-1.02-15.08-3.18-18.94-8.35-27.56-30.55-19.22-49.48,6.18-14.04,19.97-22.41,34.41-22.41m0-4c-16.49,0-31.44,9.73-38.07,24.79-9.23,20.96.3,45.52,21.26,54.76,5.31,2.34,10.93,3.52,16.7,3.52,16.49,0,31.43-9.73,38.07-24.79,4.47-10.14,4.71-21.42.69-31.78-4.02-10.35-11.82-18.52-21.96-22.98-5.31-2.34-10.92-3.52-16.69-3.52h0Z"/>
          </g>
          <g>
            <path class="cls-2" d="m89.4,51.59l-5.22,4.06-9.41,7.92-.42-7.69-6.11,1.1-.68-7.08-4.2,2.24-1.21-.94-3.62-3.61-1.15,4.92,2.77,2.79-12.11,11.77-3.29.52-.02-6.35,2.37-9.6-4.31-2.11-.44-4.13,5.46-5.74,4.04.75,1.62,2.5,5.98,1.05-4.5-5.87-4.59-3.03.4-1.61,6-.67-.66-4.02,6.79-2.27,4.38,4.09,9.78,1.09s4.34-.33,9.19-.66c2.92,6.33,4.09,13.45,3.17,20.54Z"/>
            <path class="cls-2" d="m42.41,10.6l-3.44,2.51-6.12,4.71c-.16.13-.25.34-.22.54l.71,4.86c.03.2.21.39.35.45.19.08.39.06.56-.06l3.45-2.42,1.89,6.71-10.93,3.56-4.62-1.53c-.21-.07-.45,0-.6.15l-2.15,2.3c-.13.14-.19.34-.14.54l1.31,5.08-3.82-4.31-.64-2.25c4.77-10.65,13.94-17.99,24.42-20.84Z"/>
            <path class="cls-2" d="m22.97,52.17l-.44-7.25,6.31-5.75,5.61,12.54-14.95,12.7v-4.37s3.42-7.59,3.42-7.59c.04-.08.06-.18.05-.27Z"/>
            <path class="cls-2" d="m45.11,23.23l-.31-9.81c6.85-.39,10.9.63,12.41,1.12l-4.94,6.74-7.15,1.94Z"/>
          </g>
        </g>
        <g>
          <g>
            <path class="cls-4" d="m95.09,7.64c-.26-.45-.57-.86-.92-1.22l2.89-2.76c.56.59,1.06,1.25,1.48,1.96l-3.45,2.02Z"/>
            <path class="cls-4" d="m14.84,96.82l-.27-3.99c1.16-.08,2.41-.25,3.73-.53l.81,3.92c-1.49.31-2.92.51-4.27.6Zm-4.45-.14c-1.67-.25-3.18-.73-4.48-1.43l1.89-3.52c.9.48,1.97.82,3.18.99l-.58,3.96Zm12.81-1.52l-1.18-3.82c1.18-.36,2.42-.8,3.68-1.29l1.45,3.73c-1.35.52-2.67.99-3.95,1.38Zm7.77-3l-1.66-3.64c1.16-.53,2.36-1.11,3.55-1.73l1.83,3.56c-1.25.64-2.5,1.25-3.72,1.81Zm-28.76-.16c-.89-1.26-1.52-2.75-1.88-4.43l3.91-.83c.24,1.14.66,2.14,1.24,2.96l-3.27,2.3Zm36.1-3.61l-1.98-3.48c1.12-.64,2.27-1.32,3.41-2.02l2.1,3.41c-1.18.73-2.37,1.43-3.54,2.1Zm6.99-4.31l-2.21-3.34c1.09-.72,2.18-1.47,3.29-2.25l2.31,3.27c-1.13.8-2.26,1.57-3.38,2.31Zm-41.31-.86l-4-.18c.06-1.35.25-2.8.57-4.32l3.92.82c-.27,1.3-.44,2.54-.49,3.68Zm48-3.86l-2.4-3.2c1.05-.79,2.1-1.6,3.16-2.43l2.48,3.14c-1.08.86-2.17,1.69-3.24,2.49Zm-46.52-3.51l-3.8-1.24c.41-1.27.9-2.59,1.46-3.93l3.69,1.53c-.52,1.25-.97,2.47-1.35,3.64Zm52.94-1.56l-2.56-3.08c1.01-.84,2.03-1.7,3.04-2.59l2.63,3.01c-1.04.91-2.07,1.79-3.11,2.65Zm6.16-5.37l-2.7-2.95c.88-.81,1.76-1.63,2.64-2.46l.28-.27,2.77,2.89-.28.27c-.9.86-1.8,1.7-2.7,2.52Zm-56.13-.27l-3.59-1.76c.59-1.2,1.23-2.44,1.92-3.67l3.5,1.94c-.65,1.17-1.26,2.35-1.82,3.49Zm62.03-5.39l-2.83-2.82c.95-.95,1.88-1.9,2.78-2.86l2.9,2.76c-.93.98-1.88,1.96-2.85,2.93Zm5.63-5.93l-2.97-2.68c.9-1,1.78-1.99,2.64-2.99l3.03,2.61c-.88,1.02-1.78,2.04-2.71,3.07Zm5.33-6.2l-3.1-2.53c.85-1.04,1.68-2.09,2.47-3.12l3.17,2.44c-.82,1.07-1.67,2.14-2.54,3.21Zm4.99-6.49l-3.24-2.34c.78-1.08,1.55-2.18,2.27-3.26l3.32,2.23c-.75,1.11-1.54,2.25-2.35,3.37Zm4.59-6.82l-3.4-2.11c.71-1.14,1.39-2.29,2.02-3.4l3.48,1.97c-.66,1.16-1.36,2.36-2.1,3.54Zm4.05-7.19l-3.58-1.79c.61-1.21,1.16-2.4,1.66-3.55l3.67,1.58c-.52,1.22-1.12,2.49-1.76,3.77Zm3.27-7.67l-3.78-1.29c.44-1.28.8-2.52,1.07-3.68l3.9.91c-.3,1.3-.7,2.67-1.18,4.07Zm1.87-8.35l-3.99-.32c.04-.5.06-.99.06-1.46,0-.74-.05-1.45-.15-2.1l3.95-.61c.13.85.2,1.76.2,2.71,0,.58-.02,1.18-.07,1.78Z"/>
            <path class="cls-4" d="m12.27,61.73l-3.41-2.09c.35-.57.71-1.15,1.08-1.73l3.37,2.15c-.36.56-.7,1.11-1.04,1.66Z"/>
          </g>
          <path class="cls-4" d="m13.22,96.86c-4.29,0-7.7-1.22-10.03-3.66l2.89-2.76c3.54,3.7,11.63,3.17,22.22-1.48,11.36-4.98,24.22-14.03,36.2-25.46,11.99-11.44,21.62-23.85,27.13-34.97,5.14-10.36,6.05-18.42,2.52-22.12-4.19-4.4-15.03-2.69-28.29,4.45l-1.9-3.52c15.36-8.28,27.42-9.62,33.08-3.69,4.83,5.07,4.18,14.54-1.83,26.66-5.71,11.52-15.64,24.33-27.96,36.08-12.31,11.75-25.58,21.06-37.36,26.23-6.43,2.82-12.07,4.23-16.69,4.23Z"/>
        </g>
      </g>
      <g>
        <path class="cls-1" d="m28.78,92.21c0,4.6-3.73,8.33-8.33,8.33s-8.33-3.73-8.33-8.33,3.73-8.33,8.33-8.33,8.33,3.73,8.33,8.33Z"/>
        <path class="cls-4" d="m20.45,102.54c-5.7,0-10.33-4.64-10.33-10.33s4.64-10.33,10.33-10.33,10.33,4.64,10.33,10.33-4.64,10.33-10.33,10.33Zm0-16.67c-3.49,0-6.33,2.84-6.33,6.33s2.84,6.33,6.33,6.33,6.33-2.84,6.33-6.33-2.84-6.33-6.33-6.33Z"/>
      </g>
    </g>
  </g>
</svg>