<?xml version="1.0" encoding="UTF-8"?>
<svg id="_圖層_2" data-name="圖層 2" xmlns="http://www.w3.org/2000/svg" viewBox="0 0 91.02 94.54">
  <defs>
    <style>
      .cls-1 {
        fill: #fff;
      }

      .cls-2 {
        fill: #5eb4e7;
      }

      .cls-3 {
        fill: #f8c44f;
      }

      .cls-4 {
        fill: #282d33;
      }
    </style>
  </defs>
  <g id="Layer_4" data-name="Layer 4">
    <g>
      <rect class="cls-3" x="15.46" y="8" width="49.04" height="55.93"/>
      <path class="cls-4" d="m4.15,81.21H0V8.6h.23C1.25,3.71,5.63,0,10.78,0h61.72v71.93H10.78c-3.74,0-6.78,3.04-6.78,6.78,0,.08,0,.15.01.22l.14,2.27Zm-.15-70.16v59.29c1.85-1.5,4.21-2.41,6.78-2.41h57.72V4H10.78c-3.66,0-6.7,2.98-6.77,6.64v.41Z"/>
      <g>
        <path class="cls-1" d="m70.5,69.93H10.78c-4.85,0-8.78,3.93-8.78,8.78s3.93,8.78,8.78,8.78h59.72v-17.56Z"/>
        <path class="cls-4" d="m72.5,89.5H10.78c-5.94,0-10.78-4.84-10.78-10.78s4.84-10.78,10.78-10.78h61.72v21.56Zm-61.72-17.56c-3.74,0-6.78,3.04-6.78,6.78s3.04,6.78,6.78,6.78h57.72v-13.56H10.78Z"/>
      </g>
      <g>
        <path class="cls-1" d="m89.02,6.19v-3.43c0-.42-.47-.76-1.05-.76h-7.46c-.58,0-1.05.34-1.05.76v3.43"/>
        <path class="cls-4" d="m91.02,6.19h-4v-2.19h-5.56v2.19h-4v-3.43c0-1.55,1.34-2.76,3.05-2.76h7.46c1.71,0,3.05,1.21,3.05,2.76v3.43Z"/>
      </g>
      <polygon class="cls-2" points="27.89 94.54 21.52 90.5 15.15 94.54 15.15 79.47 21.52 79.47 27.89 79.47 27.89 94.54"/>
      <rect class="cls-4" x="10.13" y="77.22" width="60.37" height="4"/>
      <rect class="cls-4" x="8.13" y="2.85" width="4" height="66.54"/>
      <g>
        <rect class="cls-2" x="79.46" y="11.13" width="9.56" height="46.56"/>
        <path class="cls-2" d="m91.02,59.69h-13.56V9.13h13.56v50.56Zm-9.56-4h5.56V13.13h-5.56v42.56Z"/>
      </g>
      <polygon class="cls-4" points="84.25 76.99 77.47 60.22 77.47 58.35 81.47 58.35 81.47 59.44 84.25 66.31 87.02 59.44 87.02 58.35 91.02 58.35 91.02 60.22 84.25 76.99"/>
      <rect class="cls-4" x="26.8" y="31.8" width="27" height="4"/>
      <rect class="cls-4" x="29.96" y="23.3" width="20.67" height="4"/>
    </g>
  </g>
</svg>